<svg xmlns="http://www.w3.org/2000/svg" xmlns:xlink="http://www.w3.org/1999/xlink" contentStyleType="text/css" height="573px" preserveAspectRatio="none" style="width:1139px;height:573px;background:#FFFFFF;" version="1.1" viewBox="0 0 1139 573" width="1139px" zoomAndPan="magnify"><defs/><g><!--class Vehiculo--><g id="elem_Vehiculo"><rect codeLine="1" fill="#F1F1F1" height="48" id="Vehiculo" rx="2.5" ry="2.5" style="stroke:#181818;stroke-width:0.5;" width="85.7031" x="886" y="391"/><ellipse cx="901" cy="407" fill="#A9DCDF" rx="11" ry="11" style="stroke:#181818;stroke-width:1.0;"/><path d="M903.1875,408.7656 L899.0469,408.7656 L898.625,409.7969 L899.0469,409.7969 Q899.6563,409.7969 899.9219,410.0313 Q900.1875,410.2656 900.1875,410.6563 Q900.1875,411.0313 899.9219,411.2656 Q899.6563,411.5 899.0469,411.5 L896.75,411.5 Q896.1406,411.5 895.8906,411.2656 Q895.625,411.0313 895.625,410.6406 Q895.625,410.2656 895.9063,410.0313 Q896.1719,409.7813 896.7969,409.7969 L899.4688,403.1406 L898.3594,403.1406 Q897.75,403.1406 897.4844,402.9063 Q897.2188,402.6719 897.2188,402.2813 Q897.2188,401.9063 897.4844,401.6719 Q897.75,401.4375 898.3594,401.4375 L902.0313,401.4375 L905.4219,409.7969 Q906.0156,409.7969 906.2031,409.9375 Q906.5938,410.2031 906.5938,410.6563 Q906.5938,411.0313 906.3281,411.2656 Q906.0781,411.5 905.4688,411.5 L903.1719,411.5 Q902.5625,411.5 902.2969,411.2656 Q902.0313,411.0313 902.0313,410.6406 Q902.0313,410.2656 902.2969,410.0313 Q902.5625,409.7969 903.1719,409.7969 L903.5938,409.7969 L903.1875,408.7656 Z M902.4688,407.0625 L901.1094,403.6875 L899.7344,407.0625 L902.4688,407.0625 Z " fill="#000000"/><text fill="#000000" font-family="sans-serif" font-size="14" font-style="italic" lengthAdjust="spacing" textLength="53.7031" x="915" y="412.7969">Vehiculo</text><line style="stroke:#181818;stroke-width:0.5;" x1="887" x2="970.7031" y1="423" y2="423"/><line style="stroke:#181818;stroke-width:0.5;" x1="887" x2="970.7031" y1="431" y2="431"/></g><!--class Coche--><g id="elem_Coche"><rect codeLine="2" fill="#F1F1F1" height="48" id="Coche" rx="2.5" ry="2.5" style="stroke:#181818;stroke-width:0.5;" width="72.4688" x="624" y="236"/><ellipse cx="639" cy="252" fill="#A9DCDF" rx="11" ry="11" style="stroke:#181818;stroke-width:1.0;"/><path d="M641.1875,253.7656 L637.0469,253.7656 L636.625,254.7969 L637.0469,254.7969 Q637.6563,254.7969 637.9219,255.0313 Q638.1875,255.2656 638.1875,255.6563 Q638.1875,256.0313 637.9219,256.2656 Q637.6563,256.5 637.0469,256.5 L634.75,256.5 Q634.1406,256.5 633.8906,256.2656 Q633.625,256.0313 633.625,255.6406 Q633.625,255.2656 633.9063,255.0313 Q634.1719,254.7813 634.7969,254.7969 L637.4688,248.1406 L636.3594,248.1406 Q635.75,248.1406 635.4844,247.9063 Q635.2188,247.6719 635.2188,247.2813 Q635.2188,246.9063 635.4844,246.6719 Q635.75,246.4375 636.3594,246.4375 L640.0313,246.4375 L643.4219,254.7969 Q644.0156,254.7969 644.2031,254.9375 Q644.5938,255.2031 644.5938,255.6563 Q644.5938,256.0313 644.3281,256.2656 Q644.0781,256.5 643.4688,256.5 L641.1719,256.5 Q640.5625,256.5 640.2969,256.2656 Q640.0313,256.0313 640.0313,255.6406 Q640.0313,255.2656 640.2969,255.0313 Q640.5625,254.7969 641.1719,254.7969 L641.5938,254.7969 L641.1875,253.7656 Z M640.4688,252.0625 L639.1094,248.6875 L637.7344,252.0625 L640.4688,252.0625 Z " fill="#000000"/><text fill="#000000" font-family="sans-serif" font-size="14" font-style="italic" lengthAdjust="spacing" textLength="40.4688" x="653" y="257.7969">Coche</text><line style="stroke:#181818;stroke-width:0.5;" x1="625" x2="695.4688" y1="268" y2="268"/><line style="stroke:#181818;stroke-width:0.5;" x1="625" x2="695.4688" y1="276" y2="276"/></g><!--class Moto--><g id="elem_Moto"><rect codeLine="3" fill="#F1F1F1" height="48" id="Moto" rx="2.5" ry="2.5" style="stroke:#181818;stroke-width:0.5;" width="63.124" x="827.5" y="236"/><ellipse cx="842.5" cy="252" fill="#A9DCDF" rx="11" ry="11" style="stroke:#181818;stroke-width:1.0;"/><path d="M844.6875,253.7656 L840.5469,253.7656 L840.125,254.7969 L840.5469,254.7969 Q841.1563,254.7969 841.4219,255.0313 Q841.6875,255.2656 841.6875,255.6563 Q841.6875,256.0313 841.4219,256.2656 Q841.1563,256.5 840.5469,256.5 L838.25,256.5 Q837.6406,256.5 837.3906,256.2656 Q837.125,256.0313 837.125,255.6406 Q837.125,255.2656 837.4063,255.0313 Q837.6719,254.7813 838.2969,254.7969 L840.9688,248.1406 L839.8594,248.1406 Q839.25,248.1406 838.9844,247.9063 Q838.7188,247.6719 838.7188,247.2813 Q838.7188,246.9063 838.9844,246.6719 Q839.25,246.4375 839.8594,246.4375 L843.5313,246.4375 L846.9219,254.7969 Q847.5156,254.7969 847.7031,254.9375 Q848.0938,255.2031 848.0938,255.6563 Q848.0938,256.0313 847.8281,256.2656 Q847.5781,256.5 846.9688,256.5 L844.6719,256.5 Q844.0625,256.5 843.7969,256.2656 Q843.5313,256.0313 843.5313,255.6406 Q843.5313,255.2656 843.7969,255.0313 Q844.0625,254.7969 844.6719,254.7969 L845.0938,254.7969 L844.6875,253.7656 Z M843.9688,252.0625 L842.6094,248.6875 L841.2344,252.0625 L843.9688,252.0625 Z " fill="#000000"/><text fill="#000000" font-family="sans-serif" font-size="14" font-style="italic" lengthAdjust="spacing" textLength="31.124" x="856.5" y="257.7969">Moto</text><line style="stroke:#181818;stroke-width:0.5;" x1="828.5" x2="889.624" y1="268" y2="268"/><line style="stroke:#181818;stroke-width:0.5;" x1="828.5" x2="889.624" y1="276" y2="276"/></g><!--class Camion--><g id="elem_Camion"><rect codeLine="4" fill="#F1F1F1" height="48" id="Camion" rx="2.5" ry="2.5" style="stroke:#181818;stroke-width:0.5;" width="80.2412" x="926" y="236"/><ellipse cx="941" cy="252" fill="#A9DCDF" rx="11" ry="11" style="stroke:#181818;stroke-width:1.0;"/><path d="M943.1875,253.7656 L939.0469,253.7656 L938.625,254.7969 L939.0469,254.7969 Q939.6563,254.7969 939.9219,255.0313 Q940.1875,255.2656 940.1875,255.6563 Q940.1875,256.0313 939.9219,256.2656 Q939.6563,256.5 939.0469,256.5 L936.75,256.5 Q936.1406,256.5 935.8906,256.2656 Q935.625,256.0313 935.625,255.6406 Q935.625,255.2656 935.9063,255.0313 Q936.1719,254.7813 936.7969,254.7969 L939.4688,248.1406 L938.3594,248.1406 Q937.75,248.1406 937.4844,247.9063 Q937.2188,247.6719 937.2188,247.2813 Q937.2188,246.9063 937.4844,246.6719 Q937.75,246.4375 938.3594,246.4375 L942.0313,246.4375 L945.4219,254.7969 Q946.0156,254.7969 946.2031,254.9375 Q946.5938,255.2031 946.5938,255.6563 Q946.5938,256.0313 946.3281,256.2656 Q946.0781,256.5 945.4688,256.5 L943.1719,256.5 Q942.5625,256.5 942.2969,256.2656 Q942.0313,256.0313 942.0313,255.6406 Q942.0313,255.2656 942.2969,255.0313 Q942.5625,254.7969 943.1719,254.7969 L943.5938,254.7969 L943.1875,253.7656 Z M942.4688,252.0625 L941.1094,248.6875 L939.7344,252.0625 L942.4688,252.0625 Z " fill="#000000"/><text fill="#000000" font-family="sans-serif" font-size="14" font-style="italic" lengthAdjust="spacing" textLength="48.2412" x="955" y="257.7969">Camion</text><line style="stroke:#181818;stroke-width:0.5;" x1="927" x2="1005.2412" y1="268" y2="268"/><line style="stroke:#181818;stroke-width:0.5;" x1="927" x2="1005.2412" y1="276" y2="276"/></g><!--class Sedan--><g id="elem_Sedan"><rect codeLine="5" fill="#F1F1F1" height="48" id="Sedan" rx="2.5" ry="2.5" style="stroke:#181818;stroke-width:0.5;" width="72.4824" x="466" y="44"/><ellipse cx="481" cy="60" fill="#ADD1B2" rx="11" ry="11" style="stroke:#181818;stroke-width:1.0;"/><path d="M483.7656,55.875 Q483.9219,55.6563 484.1094,55.5469 Q484.2969,55.4375 484.5156,55.4375 Q484.8906,55.4375 485.125,55.7031 Q485.3594,55.9531 485.3594,56.5625 L485.3594,58.0156 Q485.3594,58.625 485.125,58.8906 Q484.8906,59.1563 484.5156,59.1563 Q484.1719,59.1563 483.9688,58.9531 Q483.7656,58.7656 483.6563,58.25 Q483.6094,57.8906 483.4219,57.7031 Q483.0938,57.3281 482.4844,57.1094 Q481.875,56.8906 481.25,56.8906 Q480.4844,56.8906 479.8438,57.2188 Q479.2188,57.5469 478.7188,58.2969 Q478.2344,59.0469 478.2344,60.0781 L478.2344,61.1719 Q478.2344,62.4063 479.125,63.2344 Q480.0156,64.0469 481.6094,64.0469 Q482.5469,64.0469 483.2031,63.7969 Q483.5938,63.6406 484.0156,63.2031 Q484.2813,62.9375 484.4219,62.8594 Q484.5781,62.7813 484.7813,62.7813 Q485.1094,62.7813 485.3594,63.0469 Q485.625,63.2969 485.625,63.6406 Q485.625,63.9844 485.2813,64.3906 Q484.7813,64.9688 483.9844,65.2969 Q482.9063,65.75 481.6094,65.75 Q480.0938,65.75 478.8906,65.125 Q477.9063,64.625 477.2188,63.5625 Q476.5313,62.4844 476.5313,61.2031 L476.5313,60.0469 Q476.5313,58.7188 477.1406,57.5781 Q477.7656,56.4219 478.8594,55.8125 Q479.9531,55.1875 481.1875,55.1875 Q481.9219,55.1875 482.5625,55.3594 Q483.2188,55.5156 483.7656,55.875 Z " fill="#000000"/><text fill="#000000" font-family="sans-serif" font-size="14" lengthAdjust="spacing" textLength="40.4824" x="495" y="65.7969">Sedan</text><line style="stroke:#181818;stroke-width:0.5;" x1="467" x2="537.4824" y1="76" y2="76"/><line style="stroke:#181818;stroke-width:0.5;" x1="467" x2="537.4824" y1="84" y2="84"/></g><!--class SUV--><g id="elem_SUV"><rect codeLine="6" fill="#F1F1F1" height="48" id="SUV" rx="2.5" ry="2.5" style="stroke:#181818;stroke-width:0.5;" width="60.7861" x="573.5" y="44"/><ellipse cx="588.5" cy="60" fill="#ADD1B2" rx="11" ry="11" style="stroke:#181818;stroke-width:1.0;"/><path d="M591.2656,55.875 Q591.4219,55.6563 591.6094,55.5469 Q591.7969,55.4375 592.0156,55.4375 Q592.3906,55.4375 592.625,55.7031 Q592.8594,55.9531 592.8594,56.5625 L592.8594,58.0156 Q592.8594,58.625 592.625,58.8906 Q592.3906,59.1563 592.0156,59.1563 Q591.6719,59.1563 591.4688,58.9531 Q591.2656,58.7656 591.1563,58.25 Q591.1094,57.8906 590.9219,57.7031 Q590.5938,57.3281 589.9844,57.1094 Q589.375,56.8906 588.75,56.8906 Q587.9844,56.8906 587.3438,57.2188 Q586.7188,57.5469 586.2188,58.2969 Q585.7344,59.0469 585.7344,60.0781 L585.7344,61.1719 Q585.7344,62.4063 586.625,63.2344 Q587.5156,64.0469 589.1094,64.0469 Q590.0469,64.0469 590.7031,63.7969 Q591.0938,63.6406 591.5156,63.2031 Q591.7813,62.9375 591.9219,62.8594 Q592.0781,62.7813 592.2813,62.7813 Q592.6094,62.7813 592.8594,63.0469 Q593.125,63.2969 593.125,63.6406 Q593.125,63.9844 592.7813,64.3906 Q592.2813,64.9688 591.4844,65.2969 Q590.4063,65.75 589.1094,65.75 Q587.5938,65.75 586.3906,65.125 Q585.4063,64.625 584.7188,63.5625 Q584.0313,62.4844 584.0313,61.2031 L584.0313,60.0469 Q584.0313,58.7188 584.6406,57.5781 Q585.2656,56.4219 586.3594,55.8125 Q587.4531,55.1875 588.6875,55.1875 Q589.4219,55.1875 590.0625,55.3594 Q590.7188,55.5156 591.2656,55.875 Z " fill="#000000"/><text fill="#000000" font-family="sans-serif" font-size="14" lengthAdjust="spacing" textLength="28.7861" x="602.5" y="65.7969">SUV</text><line style="stroke:#181818;stroke-width:0.5;" x1="574.5" x2="633.2861" y1="76" y2="76"/><line style="stroke:#181818;stroke-width:0.5;" x1="574.5" x2="633.2861" y1="84" y2="84"/></g><!--class Deportivo--><g id="elem_Deportivo"><rect codeLine="7" fill="#F1F1F1" height="48" id="Deportivo" rx="2.5" ry="2.5" style="stroke:#181818;stroke-width:0.5;" width="91.917" x="670" y="44"/><ellipse cx="685" cy="60" fill="#ADD1B2" rx="11" ry="11" style="stroke:#181818;stroke-width:1.0;"/><path d="M687.7656,55.875 Q687.9219,55.6563 688.1094,55.5469 Q688.2969,55.4375 688.5156,55.4375 Q688.8906,55.4375 689.125,55.7031 Q689.3594,55.9531 689.3594,56.5625 L689.3594,58.0156 Q689.3594,58.625 689.125,58.8906 Q688.8906,59.1563 688.5156,59.1563 Q688.1719,59.1563 687.9688,58.9531 Q687.7656,58.7656 687.6563,58.25 Q687.6094,57.8906 687.4219,57.7031 Q687.0938,57.3281 686.4844,57.1094 Q685.875,56.8906 685.25,56.8906 Q684.4844,56.8906 683.8438,57.2188 Q683.2188,57.5469 682.7188,58.2969 Q682.2344,59.0469 682.2344,60.0781 L682.2344,61.1719 Q682.2344,62.4063 683.125,63.2344 Q684.0156,64.0469 685.6094,64.0469 Q686.5469,64.0469 687.2031,63.7969 Q687.5938,63.6406 688.0156,63.2031 Q688.2813,62.9375 688.4219,62.8594 Q688.5781,62.7813 688.7813,62.7813 Q689.1094,62.7813 689.3594,63.0469 Q689.625,63.2969 689.625,63.6406 Q689.625,63.9844 689.2813,64.3906 Q688.7813,64.9688 687.9844,65.2969 Q686.9063,65.75 685.6094,65.75 Q684.0938,65.75 682.8906,65.125 Q681.9063,64.625 681.2188,63.5625 Q680.5313,62.4844 680.5313,61.2031 L680.5313,60.0469 Q680.5313,58.7188 681.1406,57.5781 Q681.7656,56.4219 682.8594,55.8125 Q683.9531,55.1875 685.1875,55.1875 Q685.9219,55.1875 686.5625,55.3594 Q687.2188,55.5156 687.7656,55.875 Z " fill="#000000"/><text fill="#000000" font-family="sans-serif" font-size="14" lengthAdjust="spacing" textLength="59.917" x="699" y="65.7969">Deportivo</text><line style="stroke:#181818;stroke-width:0.5;" x1="671" x2="760.917" y1="76" y2="76"/><line style="stroke:#181818;stroke-width:0.5;" x1="671" x2="760.917" y1="84" y2="84"/></g><!--class MotoDeportiva--><g id="elem_MotoDeportiva"><rect codeLine="8" fill="#F1F1F1" height="48" id="MotoDeportiva" rx="2.5" ry="2.5" style="stroke:#181818;stroke-width:0.5;" width="123.041" x="797.5" y="44"/><ellipse cx="812.5" cy="60" fill="#ADD1B2" rx="11" ry="11" style="stroke:#181818;stroke-width:1.0;"/><path d="M815.2656,55.875 Q815.4219,55.6563 815.6094,55.5469 Q815.7969,55.4375 816.0156,55.4375 Q816.3906,55.4375 816.625,55.7031 Q816.8594,55.9531 816.8594,56.5625 L816.8594,58.0156 Q816.8594,58.625 816.625,58.8906 Q816.3906,59.1563 816.0156,59.1563 Q815.6719,59.1563 815.4688,58.9531 Q815.2656,58.7656 815.1563,58.25 Q815.1094,57.8906 814.9219,57.7031 Q814.5938,57.3281 813.9844,57.1094 Q813.375,56.8906 812.75,56.8906 Q811.9844,56.8906 811.3438,57.2188 Q810.7188,57.5469 810.2188,58.2969 Q809.7344,59.0469 809.7344,60.0781 L809.7344,61.1719 Q809.7344,62.4063 810.625,63.2344 Q811.5156,64.0469 813.1094,64.0469 Q814.0469,64.0469 814.7031,63.7969 Q815.0938,63.6406 815.5156,63.2031 Q815.7813,62.9375 815.9219,62.8594 Q816.0781,62.7813 816.2813,62.7813 Q816.6094,62.7813 816.8594,63.0469 Q817.125,63.2969 817.125,63.6406 Q817.125,63.9844 816.7813,64.3906 Q816.2813,64.9688 815.4844,65.2969 Q814.4063,65.75 813.1094,65.75 Q811.5938,65.75 810.3906,65.125 Q809.4063,64.625 808.7188,63.5625 Q808.0313,62.4844 808.0313,61.2031 L808.0313,60.0469 Q808.0313,58.7188 808.6406,57.5781 Q809.2656,56.4219 810.3594,55.8125 Q811.4531,55.1875 812.6875,55.1875 Q813.4219,55.1875 814.0625,55.3594 Q814.7188,55.5156 815.2656,55.875 Z " fill="#000000"/><text fill="#000000" font-family="sans-serif" font-size="14" lengthAdjust="spacing" textLength="91.041" x="826.5" y="65.7969">MotoDeportiva</text><line style="stroke:#181818;stroke-width:0.5;" x1="798.5" x2="919.541" y1="76" y2="76"/><line style="stroke:#181818;stroke-width:0.5;" x1="798.5" x2="919.541" y1="84" y2="84"/></g><!--class Scooter--><g id="elem_Scooter"><rect codeLine="9" fill="#F1F1F1" height="48" id="Scooter" rx="2.5" ry="2.5" style="stroke:#181818;stroke-width:0.5;" width="80.248" x="956" y="44"/><ellipse cx="971" cy="60" fill="#ADD1B2" rx="11" ry="11" style="stroke:#181818;stroke-width:1.0;"/><path d="M973.7656,55.875 Q973.9219,55.6563 974.1094,55.5469 Q974.2969,55.4375 974.5156,55.4375 Q974.8906,55.4375 975.125,55.7031 Q975.3594,55.9531 975.3594,56.5625 L975.3594,58.0156 Q975.3594,58.625 975.125,58.8906 Q974.8906,59.1563 974.5156,59.1563 Q974.1719,59.1563 973.9688,58.9531 Q973.7656,58.7656 973.6563,58.25 Q973.6094,57.8906 973.4219,57.7031 Q973.0938,57.3281 972.4844,57.1094 Q971.875,56.8906 971.25,56.8906 Q970.4844,56.8906 969.8438,57.2188 Q969.2188,57.5469 968.7188,58.2969 Q968.2344,59.0469 968.2344,60.0781 L968.2344,61.1719 Q968.2344,62.4063 969.125,63.2344 Q970.0156,64.0469 971.6094,64.0469 Q972.5469,64.0469 973.2031,63.7969 Q973.5938,63.6406 974.0156,63.2031 Q974.2813,62.9375 974.4219,62.8594 Q974.5781,62.7813 974.7813,62.7813 Q975.1094,62.7813 975.3594,63.0469 Q975.625,63.2969 975.625,63.6406 Q975.625,63.9844 975.2813,64.3906 Q974.7813,64.9688 973.9844,65.2969 Q972.9063,65.75 971.6094,65.75 Q970.0938,65.75 968.8906,65.125 Q967.9063,64.625 967.2188,63.5625 Q966.5313,62.4844 966.5313,61.2031 L966.5313,60.0469 Q966.5313,58.7188 967.1406,57.5781 Q967.7656,56.4219 968.8594,55.8125 Q969.9531,55.1875 971.1875,55.1875 Q971.9219,55.1875 972.5625,55.3594 Q973.2188,55.5156 973.7656,55.875 Z " fill="#000000"/><text fill="#000000" font-family="sans-serif" font-size="14" lengthAdjust="spacing" textLength="48.248" x="985" y="65.7969">Scooter</text><line style="stroke:#181818;stroke-width:0.5;" x1="957" x2="1035.248" y1="76" y2="76"/><line style="stroke:#181818;stroke-width:0.5;" x1="957" x2="1035.248" y1="84" y2="84"/></g><!--class Persona--><g id="elem_Persona"><rect codeLine="10" fill="#F1F1F1" height="48" id="Persona" rx="2.5" ry="2.5" style="stroke:#181818;stroke-width:0.5;" width="84.1445" x="887" y="518"/><ellipse cx="902" cy="534" fill="#ADD1B2" rx="11" ry="11" style="stroke:#181818;stroke-width:1.0;"/><path d="M904.7656,529.875 Q904.9219,529.6563 905.1094,529.5469 Q905.2969,529.4375 905.5156,529.4375 Q905.8906,529.4375 906.125,529.7031 Q906.3594,529.9531 906.3594,530.5625 L906.3594,532.0156 Q906.3594,532.625 906.125,532.8906 Q905.8906,533.1563 905.5156,533.1563 Q905.1719,533.1563 904.9688,532.9531 Q904.7656,532.7656 904.6563,532.25 Q904.6094,531.8906 904.4219,531.7031 Q904.0938,531.3281 903.4844,531.1094 Q902.875,530.8906 902.25,530.8906 Q901.4844,530.8906 900.8438,531.2188 Q900.2188,531.5469 899.7188,532.2969 Q899.2344,533.0469 899.2344,534.0781 L899.2344,535.1719 Q899.2344,536.4063 900.125,537.2344 Q901.0156,538.0469 902.6094,538.0469 Q903.5469,538.0469 904.2031,537.7969 Q904.5938,537.6406 905.0156,537.2031 Q905.2813,536.9375 905.4219,536.8594 Q905.5781,536.7813 905.7813,536.7813 Q906.1094,536.7813 906.3594,537.0469 Q906.625,537.2969 906.625,537.6406 Q906.625,537.9844 906.2813,538.3906 Q905.7813,538.9688 904.9844,539.2969 Q903.9063,539.75 902.6094,539.75 Q901.0938,539.75 899.8906,539.125 Q898.9063,538.625 898.2188,537.5625 Q897.5313,536.4844 897.5313,535.2031 L897.5313,534.0469 Q897.5313,532.7188 898.1406,531.5781 Q898.7656,530.4219 899.8594,529.8125 Q900.9531,529.1875 902.1875,529.1875 Q902.9219,529.1875 903.5625,529.3594 Q904.2188,529.5156 904.7656,529.875 Z " fill="#000000"/><text fill="#000000" font-family="sans-serif" font-size="14" lengthAdjust="spacing" textLength="52.1445" x="916" y="539.7969">Persona</text><line style="stroke:#181818;stroke-width:0.5;" x1="888" x2="970.1445" y1="550" y2="550"/><line style="stroke:#181818;stroke-width:0.5;" x1="888" x2="970.1445" y1="558" y2="558"/></g><!--class Valorable--><g id="elem_Valorable"><rect codeLine="11" fill="#F1F1F1" height="48" id="Valorable" rx="2.5" ry="2.5" style="stroke:#181818;stroke-width:0.5;" width="91.1514" x="1041.5" y="236"/><ellipse cx="1056.5" cy="252" fill="#B4A7E5" rx="11" ry="11" style="stroke:#181818;stroke-width:1.0;"/><path d="M1057.4531,248.6406 L1057.4531,255.2969 L1059.1719,255.2969 Q1059.7813,255.2969 1060.0469,255.5313 Q1060.3125,255.7656 1060.3125,256.1563 Q1060.3125,256.5313 1060.0469,256.7656 Q1059.7813,257 1059.1719,257 L1054.0313,257 Q1053.4219,257 1053.1563,256.7656 Q1052.8906,256.5313 1052.8906,256.1406 Q1052.8906,255.7656 1053.1563,255.5313 Q1053.4219,255.2969 1054.0313,255.2969 L1055.75,255.2969 L1055.75,248.6406 L1054.0313,248.6406 Q1053.4219,248.6406 1053.1563,248.4063 Q1052.8906,248.1719 1052.8906,247.7813 Q1052.8906,247.4063 1053.1563,247.1719 Q1053.4219,246.9375 1054.0313,246.9375 L1059.1719,246.9375 Q1059.7813,246.9375 1060.0469,247.1719 Q1060.3125,247.4063 1060.3125,247.7813 Q1060.3125,248.1719 1060.0469,248.4063 Q1059.7813,248.6406 1059.1719,248.6406 L1057.4531,248.6406 Z " fill="#000000"/><text fill="#000000" font-family="sans-serif" font-size="14" font-style="italic" lengthAdjust="spacing" textLength="59.1514" x="1070.5" y="257.7969">Valorable</text><line style="stroke:#181818;stroke-width:0.5;" x1="1042.5" x2="1131.6514" y1="268" y2="268"/><line style="stroke:#181818;stroke-width:0.5;" x1="1042.5" x2="1131.6514" y1="276" y2="276"/></g><!--class Estado--><g id="elem_Estado"><rect codeLine="25" fill="#F1F1F1" height="85.2422" id="Estado" rx="2.5" ry="2.5" style="stroke:#181818;stroke-width:0.5;" width="96.0273" x="7" y="25.5"/><ellipse cx="31.1986" cy="41.5" fill="#EB937F" rx="11" ry="11" style="stroke:#181818;stroke-width:1.0;"/><path d="M30.058,42.2969 L30.058,44.7969 L34.3861,44.7969 L34.3861,43.875 Q34.3861,43.2656 34.6205,43 Q34.8705,42.7344 35.2455,42.7344 Q35.6205,42.7344 35.8549,43 Q36.0893,43.2656 36.0893,43.875 L36.0893,46.5 L28.0893,46.5 Q27.4643,46.5 27.1986,46.2656 Q26.9486,46.0313 26.9486,45.6406 Q26.9486,45.2656 27.2143,45.0313 Q27.4799,44.7969 28.0893,44.7969 L28.3549,44.7969 L28.3549,38.1406 L28.0893,38.1406 Q27.4643,38.1406 27.1986,37.9063 Q26.9486,37.6719 26.9486,37.2813 Q26.9486,36.9063 27.1986,36.6719 Q27.4643,36.4375 28.0893,36.4375 L35.7143,36.4375 L35.7143,39.0313 Q35.7143,39.6406 35.4799,39.9063 Q35.2611,40.1563 34.8705,40.1563 Q34.4955,40.1563 34.2611,39.9063 Q34.0268,39.6406 34.0268,39.0313 L34.0268,38.1406 L30.058,38.1406 L30.058,40.5938 L31.5424,40.5938 Q31.5424,39.9375 31.6674,39.75 Q31.933,39.3438 32.4018,39.3438 Q32.7768,39.3438 33.0111,39.6094 Q33.2455,39.8594 33.2455,40.4688 L33.2455,42.4375 Q33.2455,42.9844 33.1205,43.1719 Q32.8549,43.5625 32.4018,43.5625 Q31.933,43.5625 31.6674,43.1563 Q31.5424,42.9688 31.5424,42.2969 L30.058,42.2969 Z " fill="#000000"/><text fill="#000000" font-family="sans-serif" font-size="14" lengthAdjust="spacing" textLength="43.5859" x="47.2428" y="47.2969">Estado</text><line style="stroke:#181818;stroke-width:0.5;" x1="8" x2="102.0273" y1="57.5" y2="57.5"/><text fill="#000000" font-family="sans-serif" font-size="14" lengthAdjust="spacing" textLength="84.0273" x="13" y="76.6074">DISPONIBLE</text><text fill="#000000" font-family="sans-serif" font-size="14" lengthAdjust="spacing" textLength="63.7861" x="13" y="95.2285">VENDIDO</text><line style="stroke:#181818;stroke-width:0.5;" x1="8" x2="102.0273" y1="102.7422" y2="102.7422"/></g><!--class Riesgo--><g id="elem_Riesgo"><rect codeLine="30" fill="#F1F1F1" height="103.8633" id="Riesgo" rx="2.5" ry="2.5" style="stroke:#181818;stroke-width:0.5;" width="120.1309" x="138" y="16"/><ellipse cx="173.0483" cy="32" fill="#EB937F" rx="11" ry="11" style="stroke:#181818;stroke-width:1.0;"/><path d="M171.9077,32.7969 L171.9077,35.2969 L176.2358,35.2969 L176.2358,34.375 Q176.2358,33.7656 176.4702,33.5 Q176.7202,33.2344 177.0952,33.2344 Q177.4702,33.2344 177.7045,33.5 Q177.9389,33.7656 177.9389,34.375 L177.9389,37 L169.9389,37 Q169.3139,37 169.0483,36.7656 Q168.7983,36.5313 168.7983,36.1406 Q168.7983,35.7656 169.0639,35.5313 Q169.3295,35.2969 169.9389,35.2969 L170.2045,35.2969 L170.2045,28.6406 L169.9389,28.6406 Q169.3139,28.6406 169.0483,28.4063 Q168.7983,28.1719 168.7983,27.7813 Q168.7983,27.4063 169.0483,27.1719 Q169.3139,26.9375 169.9389,26.9375 L177.5639,26.9375 L177.5639,29.5313 Q177.5639,30.1406 177.3295,30.4063 Q177.1108,30.6563 176.7202,30.6563 Q176.3452,30.6563 176.1108,30.4063 Q175.8764,30.1406 175.8764,29.5313 L175.8764,28.6406 L171.9077,28.6406 L171.9077,31.0938 L173.392,31.0938 Q173.392,30.4375 173.517,30.25 Q173.7827,29.8438 174.2514,29.8438 Q174.6264,29.8438 174.8608,30.1094 Q175.0952,30.3594 175.0952,30.9688 L175.0952,32.9375 Q175.0952,33.4844 174.9702,33.6719 Q174.7045,34.0625 174.2514,34.0625 Q173.7827,34.0625 173.517,33.6563 Q173.392,33.4688 173.392,32.7969 L171.9077,32.7969 Z " fill="#000000"/><text fill="#000000" font-family="sans-serif" font-size="14" lengthAdjust="spacing" textLength="43.5791" x="191.5035" y="37.7969">Riesgo</text><line style="stroke:#181818;stroke-width:0.5;" x1="139" x2="257.1309" y1="48" y2="48"/><text fill="#000000" font-family="sans-serif" font-size="14" lengthAdjust="spacing" textLength="98.8066" x="144" y="67.1074">ALTO_RIESGO</text><text fill="#000000" font-family="sans-serif" font-size="14" lengthAdjust="spacing" textLength="108.1309" x="144" y="85.7285">MEDIO_RIESGO</text><text fill="#000000" font-family="sans-serif" font-size="14" lengthAdjust="spacing" textLength="98.8066" x="144" y="104.3496">BAJO_RIESGO</text><line style="stroke:#181818;stroke-width:0.5;" x1="139" x2="257.1309" y1="111.8633" y2="111.8633"/></g><!--class TipoCombustible--><g id="elem_TipoCombustible"><rect codeLine="36" fill="#F1F1F1" height="122.4844" id="TipoCombustible" rx="2.5" ry="2.5" style="stroke:#181818;stroke-width:0.5;" width="137.0479" x="293.5" y="7"/><ellipse cx="308.5" cy="23" fill="#EB937F" rx="11" ry="11" style="stroke:#181818;stroke-width:1.0;"/><path d="M307.3594,23.7969 L307.3594,26.2969 L311.6875,26.2969 L311.6875,25.375 Q311.6875,24.7656 311.9219,24.5 Q312.1719,24.2344 312.5469,24.2344 Q312.9219,24.2344 313.1563,24.5 Q313.3906,24.7656 313.3906,25.375 L313.3906,28 L305.3906,28 Q304.7656,28 304.5,27.7656 Q304.25,27.5313 304.25,27.1406 Q304.25,26.7656 304.5156,26.5313 Q304.7813,26.2969 305.3906,26.2969 L305.6563,26.2969 L305.6563,19.6406 L305.3906,19.6406 Q304.7656,19.6406 304.5,19.4063 Q304.25,19.1719 304.25,18.7813 Q304.25,18.4063 304.5,18.1719 Q304.7656,17.9375 305.3906,17.9375 L313.0156,17.9375 L313.0156,20.5313 Q313.0156,21.1406 312.7813,21.4063 Q312.5625,21.6563 312.1719,21.6563 Q311.7969,21.6563 311.5625,21.4063 Q311.3281,21.1406 311.3281,20.5313 L311.3281,19.6406 L307.3594,19.6406 L307.3594,22.0938 L308.8438,22.0938 Q308.8438,21.4375 308.9688,21.25 Q309.2344,20.8438 309.7031,20.8438 Q310.0781,20.8438 310.3125,21.1094 Q310.5469,21.3594 310.5469,21.9688 L310.5469,23.9375 Q310.5469,24.4844 310.4219,24.6719 Q310.1563,25.0625 309.7031,25.0625 Q309.2344,25.0625 308.9688,24.6563 Q308.8438,24.4688 308.8438,23.7969 L307.3594,23.7969 Z " fill="#000000"/><text fill="#000000" font-family="sans-serif" font-size="14" lengthAdjust="spacing" textLength="105.0479" x="322.5" y="28.7969">TipoCombustible</text><line style="stroke:#181818;stroke-width:0.5;" x1="294.5" x2="429.5479" y1="39" y2="39"/><text fill="#000000" font-family="sans-serif" font-size="14" lengthAdjust="spacing" textLength="71.5791" x="299.5" y="58.1074">GASOLINA</text><text fill="#000000" font-family="sans-serif" font-size="14" lengthAdjust="spacing" textLength="49.7998" x="299.5" y="76.7285">DIESEL</text><text fill="#000000" font-family="sans-serif" font-size="14" lengthAdjust="spacing" textLength="58.3379" x="299.5" y="95.3496">H&#205;BRIDO</text><text fill="#000000" font-family="sans-serif" font-size="14" lengthAdjust="spacing" textLength="70.0137" x="299.5" y="113.9707">EL&#201;TRICO</text><line style="stroke:#181818;stroke-width:0.5;" x1="294.5" x2="429.5479" y1="121.4844" y2="121.4844"/></g><!--class Traccion--><g id="elem_Traccion"><rect codeLine="43" fill="#F1F1F1" height="103.8633" id="Traccion" rx="2.5" ry="2.5" style="stroke:#181818;stroke-width:0.5;" width="96.0205" x="7" y="208"/><ellipse cx="26.6521" cy="224" fill="#EB937F" rx="11" ry="11" style="stroke:#181818;stroke-width:1.0;"/><path d="M25.5114,224.7969 L25.5114,227.2969 L29.8396,227.2969 L29.8396,226.375 Q29.8396,225.7656 30.0739,225.5 Q30.3239,225.2344 30.6989,225.2344 Q31.0739,225.2344 31.3083,225.5 Q31.5427,225.7656 31.5427,226.375 L31.5427,229 L23.5427,229 Q22.9177,229 22.6521,228.7656 Q22.4021,228.5313 22.4021,228.1406 Q22.4021,227.7656 22.6677,227.5313 Q22.9333,227.2969 23.5427,227.2969 L23.8083,227.2969 L23.8083,220.6406 L23.5427,220.6406 Q22.9177,220.6406 22.6521,220.4063 Q22.4021,220.1719 22.4021,219.7813 Q22.4021,219.4063 22.6521,219.1719 Q22.9177,218.9375 23.5427,218.9375 L31.1677,218.9375 L31.1677,221.5313 Q31.1677,222.1406 30.9333,222.4063 Q30.7146,222.6563 30.3239,222.6563 Q29.9489,222.6563 29.7146,222.4063 Q29.4802,222.1406 29.4802,221.5313 L29.4802,220.6406 L25.5114,220.6406 L25.5114,223.0938 L26.9958,223.0938 Q26.9958,222.4375 27.1208,222.25 Q27.3864,221.8438 27.8552,221.8438 Q28.2302,221.8438 28.4646,222.1094 Q28.6989,222.3594 28.6989,222.9688 L28.6989,224.9375 Q28.6989,225.4844 28.5739,225.6719 Q28.3083,226.0625 27.8552,226.0625 Q27.3864,226.0625 27.1208,225.6563 Q26.9958,225.4688 26.9958,224.7969 L25.5114,224.7969 Z " fill="#000000"/><text fill="#000000" font-family="sans-serif" font-size="14" lengthAdjust="spacing" textLength="53.6826" x="41.6858" y="229.7969">Traccion</text><line style="stroke:#181818;stroke-width:0.5;" x1="8" x2="102.0205" y1="240" y2="240"/><text fill="#000000" font-family="sans-serif" font-size="14" lengthAdjust="spacing" textLength="84.0205" x="13" y="259.1074">DELANTERA</text><text fill="#000000" font-family="sans-serif" font-size="14" lengthAdjust="spacing" textLength="66.124" x="13" y="277.7285">TRASERA</text><text fill="#000000" font-family="sans-serif" font-size="14" lengthAdjust="spacing" textLength="24.9102" x="13" y="296.3496">4X4</text><line style="stroke:#181818;stroke-width:0.5;" x1="8" x2="102.0205" y1="303.8633" y2="303.8633"/></g><!--class TipoTransmision--><g id="elem_TipoTransmision"><rect codeLine="49" fill="#F1F1F1" height="85.2422" id="TipoTransmision" rx="2.5" ry="2.5" style="stroke:#181818;stroke-width:0.5;" width="135.4756" x="138.5" y="217.5"/><ellipse cx="153.5" cy="233.5" fill="#EB937F" rx="11" ry="11" style="stroke:#181818;stroke-width:1.0;"/><path d="M152.3594,234.2969 L152.3594,236.7969 L156.6875,236.7969 L156.6875,235.875 Q156.6875,235.2656 156.9219,235 Q157.1719,234.7344 157.5469,234.7344 Q157.9219,234.7344 158.1563,235 Q158.3906,235.2656 158.3906,235.875 L158.3906,238.5 L150.3906,238.5 Q149.7656,238.5 149.5,238.2656 Q149.25,238.0313 149.25,237.6406 Q149.25,237.2656 149.5156,237.0313 Q149.7813,236.7969 150.3906,236.7969 L150.6563,236.7969 L150.6563,230.1406 L150.3906,230.1406 Q149.7656,230.1406 149.5,229.9063 Q149.25,229.6719 149.25,229.2813 Q149.25,228.9063 149.5,228.6719 Q149.7656,228.4375 150.3906,228.4375 L158.0156,228.4375 L158.0156,231.0313 Q158.0156,231.6406 157.7813,231.9063 Q157.5625,232.1563 157.1719,232.1563 Q156.7969,232.1563 156.5625,231.9063 Q156.3281,231.6406 156.3281,231.0313 L156.3281,230.1406 L152.3594,230.1406 L152.3594,232.5938 L153.8438,232.5938 Q153.8438,231.9375 153.9688,231.75 Q154.2344,231.3438 154.7031,231.3438 Q155.0781,231.3438 155.3125,231.6094 Q155.5469,231.8594 155.5469,232.4688 L155.5469,234.4375 Q155.5469,234.9844 155.4219,235.1719 Q155.1563,235.5625 154.7031,235.5625 Q154.2344,235.5625 153.9688,235.1563 Q153.8438,234.9688 153.8438,234.2969 L152.3594,234.2969 Z " fill="#000000"/><text fill="#000000" font-family="sans-serif" font-size="14" lengthAdjust="spacing" textLength="103.4756" x="167.5" y="239.2969">TipoTransmision</text><line style="stroke:#181818;stroke-width:0.5;" x1="139.5" x2="272.9756" y1="249.5" y2="249.5"/><text fill="#000000" font-family="sans-serif" font-size="14" lengthAdjust="spacing" textLength="58.3447" x="144.5" y="268.6074">MANUAL</text><text fill="#000000" font-family="sans-serif" font-size="14" lengthAdjust="spacing" textLength="91.7793" x="144.5" y="287.2285">AUTOM&#193;TICA</text><line style="stroke:#181818;stroke-width:0.5;" x1="139.5" x2="272.9756" y1="294.7422" y2="294.7422"/></g><!--class NivelConfort--><g id="elem_NivelConfort"><rect codeLine="54" fill="#F1F1F1" height="103.8633" id="NivelConfort" rx="2.5" ry="2.5" style="stroke:#181818;stroke-width:0.5;" width="109.0273" x="308.5" y="208"/><ellipse cx="323.5" cy="224" fill="#EB937F" rx="11" ry="11" style="stroke:#181818;stroke-width:1.0;"/><path d="M322.3594,224.7969 L322.3594,227.2969 L326.6875,227.2969 L326.6875,226.375 Q326.6875,225.7656 326.9219,225.5 Q327.1719,225.2344 327.5469,225.2344 Q327.9219,225.2344 328.1563,225.5 Q328.3906,225.7656 328.3906,226.375 L328.3906,229 L320.3906,229 Q319.7656,229 319.5,228.7656 Q319.25,228.5313 319.25,228.1406 Q319.25,227.7656 319.5156,227.5313 Q319.7813,227.2969 320.3906,227.2969 L320.6563,227.2969 L320.6563,220.6406 L320.3906,220.6406 Q319.7656,220.6406 319.5,220.4063 Q319.25,220.1719 319.25,219.7813 Q319.25,219.4063 319.5,219.1719 Q319.7656,218.9375 320.3906,218.9375 L328.0156,218.9375 L328.0156,221.5313 Q328.0156,222.1406 327.7813,222.4063 Q327.5625,222.6563 327.1719,222.6563 Q326.7969,222.6563 326.5625,222.4063 Q326.3281,222.1406 326.3281,221.5313 L326.3281,220.6406 L322.3594,220.6406 L322.3594,223.0938 L323.8438,223.0938 Q323.8438,222.4375 323.9688,222.25 Q324.2344,221.8438 324.7031,221.8438 Q325.0781,221.8438 325.3125,222.1094 Q325.5469,222.3594 325.5469,222.9688 L325.5469,224.9375 Q325.5469,225.4844 325.4219,225.6719 Q325.1563,226.0625 324.7031,226.0625 Q324.2344,226.0625 323.9688,225.6563 Q323.8438,225.4688 323.8438,224.7969 L322.3594,224.7969 Z " fill="#000000"/><text fill="#000000" font-family="sans-serif" font-size="14" lengthAdjust="spacing" textLength="77.0273" x="337.5" y="229.7969">NivelConfort</text><line style="stroke:#181818;stroke-width:0.5;" x1="309.5" x2="416.5273" y1="240" y2="240"/><text fill="#000000" font-family="sans-serif" font-size="14" lengthAdjust="spacing" textLength="52.9033" x="314.5" y="259.1074">B&#193;SICO</text><text fill="#000000" font-family="sans-serif" font-size="14" lengthAdjust="spacing" textLength="45.8896" x="314.5" y="277.7285">MEDIO</text><text fill="#000000" font-family="sans-serif" font-size="14" lengthAdjust="spacing" textLength="66.1104" x="314.5" y="296.3496">PREMIUM</text><line style="stroke:#181818;stroke-width:0.5;" x1="309.5" x2="416.5273" y1="303.8633" y2="303.8633"/></g><!--link Camion to Vehiculo--><g id="link_Camion_Vehiculo"><path codeLine="14" d="M960.38,284.24 C953.43,312.99 945.8828,344.1948 938.9028,373.0448 " fill="none" id="Camion-to-Vehiculo" style="stroke:#181818;stroke-width:1.0;"/><polygon fill="none" points="934.67,390.54,944.7346,374.4557,933.0711,371.6338,934.67,390.54" style="stroke:#181818;stroke-width:1.0;"/><text fill="#000000" font-family="sans-serif" font-size="13" lengthAdjust="spacing" textLength="31.8018" x="947" y="357.0283">es un</text></g><!--reverse link Vehiculo to Persona--><g id="link_Vehiculo_Persona"><path codeLine="15" d="M929,451.22 C929,473.67 929,495.5 929,517.91 " fill="none" id="Vehiculo-backto-Persona" style="stroke:#181818;stroke-width:1.0;stroke-dasharray:7.0,7.0;"/><polygon fill="#181818" points="929,439.22,925,445.22,929,451.22,933,445.22,929,439.22" style="stroke:#181818;stroke-width:1.0;"/><text fill="#000000" font-family="sans-serif" font-size="13" lengthAdjust="spacing" textLength="61.4263" x="930" y="484.0283">propietario</text></g><!--reverse link Valorable to Vehiculo--><g id="link_Valorable_Vehiculo"><path codeLine="16" d="M1051.6419,297.1767 C1031.5619,317.6367 1013.98,335.21 987,361 C976.65,370.9 965.03,381.59 954.93,390.76 " fill="none" id="Valorable-backto-Vehiculo" style="stroke:#181818;stroke-width:1.0;stroke-dasharray:7.0,7.0;"/><polygon fill="none" points="1064.25,284.33,1047.3597,292.974,1055.9242,301.3794,1064.25,284.33" style="stroke:#181818;stroke-width:1.0;"/><text fill="#000000" font-family="sans-serif" font-size="13" lengthAdjust="spacing" textLength="67.9199" x="1007" y="357.0283">Implementa</text></g><!--link Coche to Vehiculo--><g id="link_Coche_Vehiculo"><path codeLine="17" d="M696.28,281.63 C746.33,310.1 820.6338,352.3608 872.8338,382.0508 " fill="none" id="Coche-to-Vehiculo" style="stroke:#181818;stroke-width:1.0;"/><polygon fill="none" points="888.48,390.95,875.8002,376.8354,869.8674,387.2662,888.48,390.95" style="stroke:#181818;stroke-width:1.0;"/><text fill="#000000" font-family="sans-serif" font-size="13" lengthAdjust="spacing" textLength="31.8018" x="836" y="357.0283">es un</text></g><!--link Sedan to Coche--><g id="link_Sedan_Coche"><path codeLine="18" d="M520.61,92.08 C538.52,114.22 566.43,148.54 591,178 C607.33,197.58 614.3746,205.933 628.2146,222.053 " fill="none" id="Sedan-to-Coche" style="stroke:#181818;stroke-width:1.0;"/><polygon fill="none" points="639.94,235.71,632.7669,218.1445,623.6622,225.9614,639.94,235.71" style="stroke:#181818;stroke-width:1.0;"/><text fill="#000000" font-family="sans-serif" font-size="13" lengthAdjust="spacing" textLength="31.8018" x="592" y="174.0283">es un</text></g><!--link Deportivo to Coche--><g id="link_Deportivo_Coche"><path codeLine="19" d="M709.13,92.3 C698.36,128.86 682.6754,182.0433 671.9254,218.5433 " fill="none" id="Deportivo-to-Coche" style="stroke:#181818;stroke-width:1.0;"/><polygon fill="none" points="666.84,235.81,677.681,220.2384,666.1698,216.8482,666.84,235.81" style="stroke:#181818;stroke-width:1.0;"/><text fill="#000000" font-family="sans-serif" font-size="13" lengthAdjust="spacing" textLength="31.8018" x="689" y="174.0283">es un</text></g><!--link SUV to Coche--><g id="link_SUV_Coche"><path codeLine="20" d="M610.87,92.3 C621.64,128.86 637.3246,182.0433 648.0746,218.5433 " fill="none" id="SUV-to-Coche" style="stroke:#181818;stroke-width:1.0;"/><polygon fill="none" points="653.16,235.81,653.8302,216.8482,642.319,220.2384,653.16,235.81" style="stroke:#181818;stroke-width:1.0;"/><text fill="#000000" font-family="sans-serif" font-size="13" lengthAdjust="spacing" textLength="31.8018" x="637" y="174.0283">es un</text></g><!--link Moto to Vehiculo--><g id="link_Moto_Vehiculo"><path codeLine="21" d="M868.1,284.29 C876.25,304.72 888.76,335.13 901,361 C905.67,370.88 902.7099,365.7088 907.6299,374.8788 " fill="none" id="Moto-to-Vehiculo" style="stroke:#181818;stroke-width:1.0;"/><polygon fill="none" points="916.14,390.74,912.917,372.0421,902.3429,377.7155,916.14,390.74" style="stroke:#181818;stroke-width:1.0;"/><text fill="#000000" font-family="sans-serif" font-size="13" lengthAdjust="spacing" textLength="31.8018" x="902" y="357.0283">es un</text></g><!--link Scooter to Moto--><g id="link_Scooter_Moto"><path codeLine="22" d="M979.2,92.3 C952.84,128.86 912.568,184.71 886.248,221.21 " fill="none" id="Scooter-to-Moto" style="stroke:#181818;stroke-width:1.0;"/><polygon fill="none" points="875.72,235.81,891.1147,224.7193,881.3813,217.7006,875.72,235.81" style="stroke:#181818;stroke-width:1.0;"/><text fill="#000000" font-family="sans-serif" font-size="13" lengthAdjust="spacing" textLength="39.0317" x="928" y="174.0283">es una</text></g><!--link MotoDeportiva to Moto--><g id="link_MotoDeportiva_Moto"><path codeLine="23" d="M859,92.3 C859,128.86 859,181.31 859,217.81 " fill="none" id="MotoDeportiva-to-Moto" style="stroke:#181818;stroke-width:1.0;"/><polygon fill="none" points="859,235.81,865,217.81,853,217.81,859,235.81" style="stroke:#181818;stroke-width:1.0;"/><text fill="#000000" font-family="sans-serif" font-size="13" lengthAdjust="spacing" textLength="39.0317" x="860" y="174.0283">es una</text></g><!--SRC=[TPA_Ri8m4CRtUmhFbM1YggfA9h5QL_c3aX1rgqmmnLAIYsB30WoC7VfKl5YTXAJGmXJVVJ_Vf_iSiT2c5faXMIwq9gbSgsoJunZ4jU1WjfP_cpuQ_0UAGc49NH7BfHZEy_HyScM5jL5RXDynVK_qT8PeP7skPhBMM0fGfUsjH2P9AdAinIAN0D1Paj5e_pmiG1w9r6HJmj1u68_xELQiQgoKDA9M2CCiyhItqCK8NbIvB6Hf1BG1tF5er-oq3kk5OTDReWtaLhj9uvvF5qgdjjnP4N2LuIq0PBaf2DD6B97iW12NnxCmu5EFsI9bWSlT40vdBb9IVpOSzPBm8-8iVWd1PouVYYbz6yxzhKHLw62ns6YZR9mxUA5nwF60Wcj1vi7hwNiQDJxCEtqb4NSkxjf_A6kUSGSkysYGi8X24j6u-KxU9rSc5YvreNJ7-pIOKm_eF0dzqp7X3XtWG6rbxc2vii5OSdewnerfkmdC8kRpkG-77m00]--></g></svg>