<svg xmlns="http://www.w3.org/2000/svg" xmlns:xlink="http://www.w3.org/1999/xlink" contentStyleType="text/css" height="278px" preserveAspectRatio="none" style="width:475px;height:278px;background:#FFFFFF;" version="1.1" viewBox="0 0 475 278" width="475px" zoomAndPan="magnify"><defs/><g><!--class Vehiculo--><g id="elem_Vehiculo"><rect codeLine="1" fill="#F1F1F1" height="48" id="Vehiculo" rx="2.5" ry="2.5" style="stroke:#181818;stroke-width:0.5;" width="85.7031" x="7" y="7"/><ellipse cx="22" cy="23" fill="#A9DCDF" rx="11" ry="11" style="stroke:#181818;stroke-width:1.0;"/><path d="M24.1875,24.7656 L20.0469,24.7656 L19.625,25.7969 L20.0469,25.7969 Q20.6563,25.7969 20.9219,26.0313 Q21.1875,26.2656 21.1875,26.6563 Q21.1875,27.0313 20.9219,27.2656 Q20.6563,27.5 20.0469,27.5 L17.75,27.5 Q17.1406,27.5 16.8906,27.2656 Q16.625,27.0313 16.625,26.6406 Q16.625,26.2656 16.9063,26.0313 Q17.1719,25.7813 17.7969,25.7969 L20.4688,19.1406 L19.3594,19.1406 Q18.75,19.1406 18.4844,18.9063 Q18.2188,18.6719 18.2188,18.2813 Q18.2188,17.9063 18.4844,17.6719 Q18.75,17.4375 19.3594,17.4375 L23.0313,17.4375 L26.4219,25.7969 Q27.0156,25.7969 27.2031,25.9375 Q27.5938,26.2031 27.5938,26.6563 Q27.5938,27.0313 27.3281,27.2656 Q27.0781,27.5 26.4688,27.5 L24.1719,27.5 Q23.5625,27.5 23.2969,27.2656 Q23.0313,27.0313 23.0313,26.6406 Q23.0313,26.2656 23.2969,26.0313 Q23.5625,25.7969 24.1719,25.7969 L24.5938,25.7969 L24.1875,24.7656 Z M23.4688,23.0625 L22.1094,19.6875 L20.7344,23.0625 L23.4688,23.0625 Z " fill="#000000"/><text fill="#000000" font-family="sans-serif" font-size="14" font-style="italic" lengthAdjust="spacing" textLength="53.7031" x="36" y="28.7969">Vehiculo</text><line style="stroke:#181818;stroke-width:0.5;" x1="8" x2="91.7031" y1="39" y2="39"/><line style="stroke:#181818;stroke-width:0.5;" x1="8" x2="91.7031" y1="47" y2="47"/></g><!--class Coche--><g id="elem_Coche"><rect codeLine="2" fill="#F1F1F1" height="48" id="Coche" rx="2.5" ry="2.5" style="stroke:#181818;stroke-width:0.5;" width="72.4688" x="128" y="7"/><ellipse cx="143" cy="23" fill="#A9DCDF" rx="11" ry="11" style="stroke:#181818;stroke-width:1.0;"/><path d="M145.1875,24.7656 L141.0469,24.7656 L140.625,25.7969 L141.0469,25.7969 Q141.6563,25.7969 141.9219,26.0313 Q142.1875,26.2656 142.1875,26.6563 Q142.1875,27.0313 141.9219,27.2656 Q141.6563,27.5 141.0469,27.5 L138.75,27.5 Q138.1406,27.5 137.8906,27.2656 Q137.625,27.0313 137.625,26.6406 Q137.625,26.2656 137.9063,26.0313 Q138.1719,25.7813 138.7969,25.7969 L141.4688,19.1406 L140.3594,19.1406 Q139.75,19.1406 139.4844,18.9063 Q139.2188,18.6719 139.2188,18.2813 Q139.2188,17.9063 139.4844,17.6719 Q139.75,17.4375 140.3594,17.4375 L144.0313,17.4375 L147.4219,25.7969 Q148.0156,25.7969 148.2031,25.9375 Q148.5938,26.2031 148.5938,26.6563 Q148.5938,27.0313 148.3281,27.2656 Q148.0781,27.5 147.4688,27.5 L145.1719,27.5 Q144.5625,27.5 144.2969,27.2656 Q144.0313,27.0313 144.0313,26.6406 Q144.0313,26.2656 144.2969,26.0313 Q144.5625,25.7969 145.1719,25.7969 L145.5938,25.7969 L145.1875,24.7656 Z M144.4688,23.0625 L143.1094,19.6875 L141.7344,23.0625 L144.4688,23.0625 Z " fill="#000000"/><text fill="#000000" font-family="sans-serif" font-size="14" font-style="italic" lengthAdjust="spacing" textLength="40.4688" x="157" y="28.7969">Coche</text><line style="stroke:#181818;stroke-width:0.5;" x1="129" x2="199.4688" y1="39" y2="39"/><line style="stroke:#181818;stroke-width:0.5;" x1="129" x2="199.4688" y1="47" y2="47"/></g><!--class Moto--><g id="elem_Moto"><rect codeLine="3" fill="#F1F1F1" height="48" id="Moto" rx="2.5" ry="2.5" style="stroke:#181818;stroke-width:0.5;" width="63.124" x="235.5" y="7"/><ellipse cx="250.5" cy="23" fill="#A9DCDF" rx="11" ry="11" style="stroke:#181818;stroke-width:1.0;"/><path d="M252.6875,24.7656 L248.5469,24.7656 L248.125,25.7969 L248.5469,25.7969 Q249.1563,25.7969 249.4219,26.0313 Q249.6875,26.2656 249.6875,26.6563 Q249.6875,27.0313 249.4219,27.2656 Q249.1563,27.5 248.5469,27.5 L246.25,27.5 Q245.6406,27.5 245.3906,27.2656 Q245.125,27.0313 245.125,26.6406 Q245.125,26.2656 245.4063,26.0313 Q245.6719,25.7813 246.2969,25.7969 L248.9688,19.1406 L247.8594,19.1406 Q247.25,19.1406 246.9844,18.9063 Q246.7188,18.6719 246.7188,18.2813 Q246.7188,17.9063 246.9844,17.6719 Q247.25,17.4375 247.8594,17.4375 L251.5313,17.4375 L254.9219,25.7969 Q255.5156,25.7969 255.7031,25.9375 Q256.0938,26.2031 256.0938,26.6563 Q256.0938,27.0313 255.8281,27.2656 Q255.5781,27.5 254.9688,27.5 L252.6719,27.5 Q252.0625,27.5 251.7969,27.2656 Q251.5313,27.0313 251.5313,26.6406 Q251.5313,26.2656 251.7969,26.0313 Q252.0625,25.7969 252.6719,25.7969 L253.0938,25.7969 L252.6875,24.7656 Z M251.9688,23.0625 L250.6094,19.6875 L249.2344,23.0625 L251.9688,23.0625 Z " fill="#000000"/><text fill="#000000" font-family="sans-serif" font-size="14" font-style="italic" lengthAdjust="spacing" textLength="31.124" x="264.5" y="28.7969">Moto</text><line style="stroke:#181818;stroke-width:0.5;" x1="236.5" x2="297.624" y1="39" y2="39"/><line style="stroke:#181818;stroke-width:0.5;" x1="236.5" x2="297.624" y1="47" y2="47"/></g><!--class Camion--><g id="elem_Camion"><rect codeLine="4" fill="#F1F1F1" height="48" id="Camion" rx="2.5" ry="2.5" style="stroke:#181818;stroke-width:0.5;" width="80.2412" x="334" y="7"/><ellipse cx="349" cy="23" fill="#A9DCDF" rx="11" ry="11" style="stroke:#181818;stroke-width:1.0;"/><path d="M351.1875,24.7656 L347.0469,24.7656 L346.625,25.7969 L347.0469,25.7969 Q347.6563,25.7969 347.9219,26.0313 Q348.1875,26.2656 348.1875,26.6563 Q348.1875,27.0313 347.9219,27.2656 Q347.6563,27.5 347.0469,27.5 L344.75,27.5 Q344.1406,27.5 343.8906,27.2656 Q343.625,27.0313 343.625,26.6406 Q343.625,26.2656 343.9063,26.0313 Q344.1719,25.7813 344.7969,25.7969 L347.4688,19.1406 L346.3594,19.1406 Q345.75,19.1406 345.4844,18.9063 Q345.2188,18.6719 345.2188,18.2813 Q345.2188,17.9063 345.4844,17.6719 Q345.75,17.4375 346.3594,17.4375 L350.0313,17.4375 L353.4219,25.7969 Q354.0156,25.7969 354.2031,25.9375 Q354.5938,26.2031 354.5938,26.6563 Q354.5938,27.0313 354.3281,27.2656 Q354.0781,27.5 353.4688,27.5 L351.1719,27.5 Q350.5625,27.5 350.2969,27.2656 Q350.0313,27.0313 350.0313,26.6406 Q350.0313,26.2656 350.2969,26.0313 Q350.5625,25.7969 351.1719,25.7969 L351.5938,25.7969 L351.1875,24.7656 Z M350.4688,23.0625 L349.1094,19.6875 L347.7344,23.0625 L350.4688,23.0625 Z " fill="#000000"/><text fill="#000000" font-family="sans-serif" font-size="14" font-style="italic" lengthAdjust="spacing" textLength="48.2412" x="363" y="28.7969">Camion</text><line style="stroke:#181818;stroke-width:0.5;" x1="335" x2="413.2412" y1="39" y2="39"/><line style="stroke:#181818;stroke-width:0.5;" x1="335" x2="413.2412" y1="47" y2="47"/></g><!--class Sedan--><g id="elem_Sedan"><rect codeLine="5" fill="#F1F1F1" height="48" id="Sedan" rx="2.5" ry="2.5" style="stroke:#181818;stroke-width:0.5;" width="72.4824" x="14" y="115"/><ellipse cx="29" cy="131" fill="#ADD1B2" rx="11" ry="11" style="stroke:#181818;stroke-width:1.0;"/><path d="M31.7656,126.875 Q31.9219,126.6563 32.1094,126.5469 Q32.2969,126.4375 32.5156,126.4375 Q32.8906,126.4375 33.125,126.7031 Q33.3594,126.9531 33.3594,127.5625 L33.3594,129.0156 Q33.3594,129.625 33.125,129.8906 Q32.8906,130.1563 32.5156,130.1563 Q32.1719,130.1563 31.9688,129.9531 Q31.7656,129.7656 31.6563,129.25 Q31.6094,128.8906 31.4219,128.7031 Q31.0938,128.3281 30.4844,128.1094 Q29.875,127.8906 29.25,127.8906 Q28.4844,127.8906 27.8438,128.2188 Q27.2188,128.5469 26.7188,129.2969 Q26.2344,130.0469 26.2344,131.0781 L26.2344,132.1719 Q26.2344,133.4063 27.125,134.2344 Q28.0156,135.0469 29.6094,135.0469 Q30.5469,135.0469 31.2031,134.7969 Q31.5938,134.6406 32.0156,134.2031 Q32.2813,133.9375 32.4219,133.8594 Q32.5781,133.7813 32.7813,133.7813 Q33.1094,133.7813 33.3594,134.0469 Q33.625,134.2969 33.625,134.6406 Q33.625,134.9844 33.2813,135.3906 Q32.7813,135.9688 31.9844,136.2969 Q30.9063,136.75 29.6094,136.75 Q28.0938,136.75 26.8906,136.125 Q25.9063,135.625 25.2188,134.5625 Q24.5313,133.4844 24.5313,132.2031 L24.5313,131.0469 Q24.5313,129.7188 25.1406,128.5781 Q25.7656,127.4219 26.8594,126.8125 Q27.9531,126.1875 29.1875,126.1875 Q29.9219,126.1875 30.5625,126.3594 Q31.2188,126.5156 31.7656,126.875 Z " fill="#000000"/><text fill="#000000" font-family="sans-serif" font-size="14" lengthAdjust="spacing" textLength="40.4824" x="43" y="136.7969">Sedan</text><line style="stroke:#181818;stroke-width:0.5;" x1="15" x2="85.4824" y1="147" y2="147"/><line style="stroke:#181818;stroke-width:0.5;" x1="15" x2="85.4824" y1="155" y2="155"/></g><!--class SUV--><g id="elem_SUV"><rect codeLine="6" fill="#F1F1F1" height="48" id="SUV" rx="2.5" ry="2.5" style="stroke:#181818;stroke-width:0.5;" width="60.7861" x="121.5" y="115"/><ellipse cx="136.5" cy="131" fill="#ADD1B2" rx="11" ry="11" style="stroke:#181818;stroke-width:1.0;"/><path d="M139.2656,126.875 Q139.4219,126.6563 139.6094,126.5469 Q139.7969,126.4375 140.0156,126.4375 Q140.3906,126.4375 140.625,126.7031 Q140.8594,126.9531 140.8594,127.5625 L140.8594,129.0156 Q140.8594,129.625 140.625,129.8906 Q140.3906,130.1563 140.0156,130.1563 Q139.6719,130.1563 139.4688,129.9531 Q139.2656,129.7656 139.1563,129.25 Q139.1094,128.8906 138.9219,128.7031 Q138.5938,128.3281 137.9844,128.1094 Q137.375,127.8906 136.75,127.8906 Q135.9844,127.8906 135.3438,128.2188 Q134.7188,128.5469 134.2188,129.2969 Q133.7344,130.0469 133.7344,131.0781 L133.7344,132.1719 Q133.7344,133.4063 134.625,134.2344 Q135.5156,135.0469 137.1094,135.0469 Q138.0469,135.0469 138.7031,134.7969 Q139.0938,134.6406 139.5156,134.2031 Q139.7813,133.9375 139.9219,133.8594 Q140.0781,133.7813 140.2813,133.7813 Q140.6094,133.7813 140.8594,134.0469 Q141.125,134.2969 141.125,134.6406 Q141.125,134.9844 140.7813,135.3906 Q140.2813,135.9688 139.4844,136.2969 Q138.4063,136.75 137.1094,136.75 Q135.5938,136.75 134.3906,136.125 Q133.4063,135.625 132.7188,134.5625 Q132.0313,133.4844 132.0313,132.2031 L132.0313,131.0469 Q132.0313,129.7188 132.6406,128.5781 Q133.2656,127.4219 134.3594,126.8125 Q135.4531,126.1875 136.6875,126.1875 Q137.4219,126.1875 138.0625,126.3594 Q138.7188,126.5156 139.2656,126.875 Z " fill="#000000"/><text fill="#000000" font-family="sans-serif" font-size="14" lengthAdjust="spacing" textLength="28.7861" x="150.5" y="136.7969">SUV</text><line style="stroke:#181818;stroke-width:0.5;" x1="122.5" x2="181.2861" y1="147" y2="147"/><line style="stroke:#181818;stroke-width:0.5;" x1="122.5" x2="181.2861" y1="155" y2="155"/></g><!--class Deportivo--><g id="elem_Deportivo"><rect codeLine="7" fill="#F1F1F1" height="48" id="Deportivo" rx="2.5" ry="2.5" style="stroke:#181818;stroke-width:0.5;" width="91.917" x="218" y="115"/><ellipse cx="233" cy="131" fill="#ADD1B2" rx="11" ry="11" style="stroke:#181818;stroke-width:1.0;"/><path d="M235.7656,126.875 Q235.9219,126.6563 236.1094,126.5469 Q236.2969,126.4375 236.5156,126.4375 Q236.8906,126.4375 237.125,126.7031 Q237.3594,126.9531 237.3594,127.5625 L237.3594,129.0156 Q237.3594,129.625 237.125,129.8906 Q236.8906,130.1563 236.5156,130.1563 Q236.1719,130.1563 235.9688,129.9531 Q235.7656,129.7656 235.6563,129.25 Q235.6094,128.8906 235.4219,128.7031 Q235.0938,128.3281 234.4844,128.1094 Q233.875,127.8906 233.25,127.8906 Q232.4844,127.8906 231.8438,128.2188 Q231.2188,128.5469 230.7188,129.2969 Q230.2344,130.0469 230.2344,131.0781 L230.2344,132.1719 Q230.2344,133.4063 231.125,134.2344 Q232.0156,135.0469 233.6094,135.0469 Q234.5469,135.0469 235.2031,134.7969 Q235.5938,134.6406 236.0156,134.2031 Q236.2813,133.9375 236.4219,133.8594 Q236.5781,133.7813 236.7813,133.7813 Q237.1094,133.7813 237.3594,134.0469 Q237.625,134.2969 237.625,134.6406 Q237.625,134.9844 237.2813,135.3906 Q236.7813,135.9688 235.9844,136.2969 Q234.9063,136.75 233.6094,136.75 Q232.0938,136.75 230.8906,136.125 Q229.9063,135.625 229.2188,134.5625 Q228.5313,133.4844 228.5313,132.2031 L228.5313,131.0469 Q228.5313,129.7188 229.1406,128.5781 Q229.7656,127.4219 230.8594,126.8125 Q231.9531,126.1875 233.1875,126.1875 Q233.9219,126.1875 234.5625,126.3594 Q235.2188,126.5156 235.7656,126.875 Z " fill="#000000"/><text fill="#000000" font-family="sans-serif" font-size="14" lengthAdjust="spacing" textLength="59.917" x="247" y="136.7969">Deportivo</text><line style="stroke:#181818;stroke-width:0.5;" x1="219" x2="308.917" y1="147" y2="147"/><line style="stroke:#181818;stroke-width:0.5;" x1="219" x2="308.917" y1="155" y2="155"/></g><!--class MotoDeportiva--><g id="elem_MotoDeportiva"><rect codeLine="8" fill="#F1F1F1" height="48" id="MotoDeportiva" rx="2.5" ry="2.5" style="stroke:#181818;stroke-width:0.5;" width="123.041" x="345.5" y="115"/><ellipse cx="360.5" cy="131" fill="#ADD1B2" rx="11" ry="11" style="stroke:#181818;stroke-width:1.0;"/><path d="M363.2656,126.875 Q363.4219,126.6563 363.6094,126.5469 Q363.7969,126.4375 364.0156,126.4375 Q364.3906,126.4375 364.625,126.7031 Q364.8594,126.9531 364.8594,127.5625 L364.8594,129.0156 Q364.8594,129.625 364.625,129.8906 Q364.3906,130.1563 364.0156,130.1563 Q363.6719,130.1563 363.4688,129.9531 Q363.2656,129.7656 363.1563,129.25 Q363.1094,128.8906 362.9219,128.7031 Q362.5938,128.3281 361.9844,128.1094 Q361.375,127.8906 360.75,127.8906 Q359.9844,127.8906 359.3438,128.2188 Q358.7188,128.5469 358.2188,129.2969 Q357.7344,130.0469 357.7344,131.0781 L357.7344,132.1719 Q357.7344,133.4063 358.625,134.2344 Q359.5156,135.0469 361.1094,135.0469 Q362.0469,135.0469 362.7031,134.7969 Q363.0938,134.6406 363.5156,134.2031 Q363.7813,133.9375 363.9219,133.8594 Q364.0781,133.7813 364.2813,133.7813 Q364.6094,133.7813 364.8594,134.0469 Q365.125,134.2969 365.125,134.6406 Q365.125,134.9844 364.7813,135.3906 Q364.2813,135.9688 363.4844,136.2969 Q362.4063,136.75 361.1094,136.75 Q359.5938,136.75 358.3906,136.125 Q357.4063,135.625 356.7188,134.5625 Q356.0313,133.4844 356.0313,132.2031 L356.0313,131.0469 Q356.0313,129.7188 356.6406,128.5781 Q357.2656,127.4219 358.3594,126.8125 Q359.4531,126.1875 360.6875,126.1875 Q361.4219,126.1875 362.0625,126.3594 Q362.7188,126.5156 363.2656,126.875 Z " fill="#000000"/><text fill="#000000" font-family="sans-serif" font-size="14" lengthAdjust="spacing" textLength="91.041" x="374.5" y="136.7969">MotoDeportiva</text><line style="stroke:#181818;stroke-width:0.5;" x1="346.5" x2="467.541" y1="147" y2="147"/><line style="stroke:#181818;stroke-width:0.5;" x1="346.5" x2="467.541" y1="155" y2="155"/></g><!--class Scooter--><g id="elem_Scooter"><rect codeLine="9" fill="#F1F1F1" height="48" id="Scooter" rx="2.5" ry="2.5" style="stroke:#181818;stroke-width:0.5;" width="80.248" x="10" y="223"/><ellipse cx="25" cy="239" fill="#ADD1B2" rx="11" ry="11" style="stroke:#181818;stroke-width:1.0;"/><path d="M27.7656,234.875 Q27.9219,234.6563 28.1094,234.5469 Q28.2969,234.4375 28.5156,234.4375 Q28.8906,234.4375 29.125,234.7031 Q29.3594,234.9531 29.3594,235.5625 L29.3594,237.0156 Q29.3594,237.625 29.125,237.8906 Q28.8906,238.1563 28.5156,238.1563 Q28.1719,238.1563 27.9688,237.9531 Q27.7656,237.7656 27.6563,237.25 Q27.6094,236.8906 27.4219,236.7031 Q27.0938,236.3281 26.4844,236.1094 Q25.875,235.8906 25.25,235.8906 Q24.4844,235.8906 23.8438,236.2188 Q23.2188,236.5469 22.7188,237.2969 Q22.2344,238.0469 22.2344,239.0781 L22.2344,240.1719 Q22.2344,241.4063 23.125,242.2344 Q24.0156,243.0469 25.6094,243.0469 Q26.5469,243.0469 27.2031,242.7969 Q27.5938,242.6406 28.0156,242.2031 Q28.2813,241.9375 28.4219,241.8594 Q28.5781,241.7813 28.7813,241.7813 Q29.1094,241.7813 29.3594,242.0469 Q29.625,242.2969 29.625,242.6406 Q29.625,242.9844 29.2813,243.3906 Q28.7813,243.9688 27.9844,244.2969 Q26.9063,244.75 25.6094,244.75 Q24.0938,244.75 22.8906,244.125 Q21.9063,243.625 21.2188,242.5625 Q20.5313,241.4844 20.5313,240.2031 L20.5313,239.0469 Q20.5313,237.7188 21.1406,236.5781 Q21.7656,235.4219 22.8594,234.8125 Q23.9531,234.1875 25.1875,234.1875 Q25.9219,234.1875 26.5625,234.3594 Q27.2188,234.5156 27.7656,234.875 Z " fill="#000000"/><text fill="#000000" font-family="sans-serif" font-size="14" lengthAdjust="spacing" textLength="48.248" x="39" y="244.7969">Scooter</text><line style="stroke:#181818;stroke-width:0.5;" x1="11" x2="89.248" y1="255" y2="255"/><line style="stroke:#181818;stroke-width:0.5;" x1="11" x2="89.248" y1="263" y2="263"/></g><!--class Persona--><g id="elem_Persona"><rect codeLine="10" fill="#F1F1F1" height="48" id="Persona" rx="2.5" ry="2.5" style="stroke:#181818;stroke-width:0.5;" width="84.1445" x="125" y="223"/><ellipse cx="140" cy="239" fill="#ADD1B2" rx="11" ry="11" style="stroke:#181818;stroke-width:1.0;"/><path d="M142.7656,234.875 Q142.9219,234.6563 143.1094,234.5469 Q143.2969,234.4375 143.5156,234.4375 Q143.8906,234.4375 144.125,234.7031 Q144.3594,234.9531 144.3594,235.5625 L144.3594,237.0156 Q144.3594,237.625 144.125,237.8906 Q143.8906,238.1563 143.5156,238.1563 Q143.1719,238.1563 142.9688,237.9531 Q142.7656,237.7656 142.6563,237.25 Q142.6094,236.8906 142.4219,236.7031 Q142.0938,236.3281 141.4844,236.1094 Q140.875,235.8906 140.25,235.8906 Q139.4844,235.8906 138.8438,236.2188 Q138.2188,236.5469 137.7188,237.2969 Q137.2344,238.0469 137.2344,239.0781 L137.2344,240.1719 Q137.2344,241.4063 138.125,242.2344 Q139.0156,243.0469 140.6094,243.0469 Q141.5469,243.0469 142.2031,242.7969 Q142.5938,242.6406 143.0156,242.2031 Q143.2813,241.9375 143.4219,241.8594 Q143.5781,241.7813 143.7813,241.7813 Q144.1094,241.7813 144.3594,242.0469 Q144.625,242.2969 144.625,242.6406 Q144.625,242.9844 144.2813,243.3906 Q143.7813,243.9688 142.9844,244.2969 Q141.9063,244.75 140.6094,244.75 Q139.0938,244.75 137.8906,244.125 Q136.9063,243.625 136.2188,242.5625 Q135.5313,241.4844 135.5313,240.2031 L135.5313,239.0469 Q135.5313,237.7188 136.1406,236.5781 Q136.7656,235.4219 137.8594,234.8125 Q138.9531,234.1875 140.1875,234.1875 Q140.9219,234.1875 141.5625,234.3594 Q142.2188,234.5156 142.7656,234.875 Z " fill="#000000"/><text fill="#000000" font-family="sans-serif" font-size="14" lengthAdjust="spacing" textLength="52.1445" x="154" y="244.7969">Persona</text><line style="stroke:#181818;stroke-width:0.5;" x1="126" x2="208.1445" y1="255" y2="255"/><line style="stroke:#181818;stroke-width:0.5;" x1="126" x2="208.1445" y1="263" y2="263"/></g><!--class Valorable--><g id="elem_Valorable"><rect codeLine="11" fill="#F1F1F1" height="48" id="Valorable" rx="2.5" ry="2.5" style="stroke:#181818;stroke-width:0.5;" width="91.1514" x="244.5" y="223"/><ellipse cx="259.5" cy="239" fill="#B4A7E5" rx="11" ry="11" style="stroke:#181818;stroke-width:1.0;"/><path d="M260.4531,235.6406 L260.4531,242.2969 L262.1719,242.2969 Q262.7813,242.2969 263.0469,242.5313 Q263.3125,242.7656 263.3125,243.1563 Q263.3125,243.5313 263.0469,243.7656 Q262.7813,244 262.1719,244 L257.0313,244 Q256.4219,244 256.1563,243.7656 Q255.8906,243.5313 255.8906,243.1406 Q255.8906,242.7656 256.1563,242.5313 Q256.4219,242.2969 257.0313,242.2969 L258.75,242.2969 L258.75,235.6406 L257.0313,235.6406 Q256.4219,235.6406 256.1563,235.4063 Q255.8906,235.1719 255.8906,234.7813 Q255.8906,234.4063 256.1563,234.1719 Q256.4219,233.9375 257.0313,233.9375 L262.1719,233.9375 Q262.7813,233.9375 263.0469,234.1719 Q263.3125,234.4063 263.3125,234.7813 Q263.3125,235.1719 263.0469,235.4063 Q262.7813,235.6406 262.1719,235.6406 L260.4531,235.6406 Z " fill="#000000"/><text fill="#000000" font-family="sans-serif" font-size="14" font-style="italic" lengthAdjust="spacing" textLength="59.1514" x="273.5" y="244.7969">Valorable</text><line style="stroke:#181818;stroke-width:0.5;" x1="245.5" x2="334.6514" y1="255" y2="255"/><line style="stroke:#181818;stroke-width:0.5;" x1="245.5" x2="334.6514" y1="263" y2="263"/></g><!--SRC=[POn12i8m54JtEKLEq4kqMw4WpNxw_QM1c96VNy-lOAkektblXi7St20UfQ2rc7JDiXLs0Tz5JrdrLvxe_1lYcbd32yvwmJjFQK-3tcYUxmoVcyFXM0lfQZkDQeqL8TUdMo0Q4meDSz47]--></g></svg>