<svg xmlns="http://www.w3.org/2000/svg" xmlns:xlink="http://www.w3.org/1999/xlink" contentStyleType="text/css" height="515px" preserveAspectRatio="none" style="width:717px;height:515px;background:#FFFFFF;" version="1.1" viewBox="0 0 717 515" width="717px" zoomAndPan="magnify"><defs/><g><!--class Vehiculo--><g id="elem_Vehiculo"><rect codeLine="1" fill="#F1F1F1" height="48" id="Vehiculo" rx="2.5" ry="2.5" style="stroke:#181818;stroke-width:0.5;" width="85.7031" x="31.5" y="7"/><ellipse cx="46.5" cy="23" fill="#A9DCDF" rx="11" ry="11" style="stroke:#181818;stroke-width:1.0;"/><path d="M48.6875,24.7656 L44.5469,24.7656 L44.125,25.7969 L44.5469,25.7969 Q45.1563,25.7969 45.4219,26.0313 Q45.6875,26.2656 45.6875,26.6563 Q45.6875,27.0313 45.4219,27.2656 Q45.1563,27.5 44.5469,27.5 L42.25,27.5 Q41.6406,27.5 41.3906,27.2656 Q41.125,27.0313 41.125,26.6406 Q41.125,26.2656 41.4063,26.0313 Q41.6719,25.7813 42.2969,25.7969 L44.9688,19.1406 L43.8594,19.1406 Q43.25,19.1406 42.9844,18.9063 Q42.7188,18.6719 42.7188,18.2813 Q42.7188,17.9063 42.9844,17.6719 Q43.25,17.4375 43.8594,17.4375 L47.5313,17.4375 L50.9219,25.7969 Q51.5156,25.7969 51.7031,25.9375 Q52.0938,26.2031 52.0938,26.6563 Q52.0938,27.0313 51.8281,27.2656 Q51.5781,27.5 50.9688,27.5 L48.6719,27.5 Q48.0625,27.5 47.7969,27.2656 Q47.5313,27.0313 47.5313,26.6406 Q47.5313,26.2656 47.7969,26.0313 Q48.0625,25.7969 48.6719,25.7969 L49.0938,25.7969 L48.6875,24.7656 Z M47.9688,23.0625 L46.6094,19.6875 L45.2344,23.0625 L47.9688,23.0625 Z " fill="#000000"/><text fill="#000000" font-family="sans-serif" font-size="14" font-style="italic" lengthAdjust="spacing" textLength="53.7031" x="60.5" y="28.7969">Vehiculo</text><line style="stroke:#181818;stroke-width:0.5;" x1="32.5" x2="116.2031" y1="39" y2="39"/><line style="stroke:#181818;stroke-width:0.5;" x1="32.5" x2="116.2031" y1="47" y2="47"/></g><!--class Coche--><g id="elem_Coche"><rect codeLine="2" fill="#F1F1F1" height="48" id="Coche" rx="2.5" ry="2.5" style="stroke:#181818;stroke-width:0.5;" width="72.4688" x="152.5" y="7"/><ellipse cx="167.5" cy="23" fill="#A9DCDF" rx="11" ry="11" style="stroke:#181818;stroke-width:1.0;"/><path d="M169.6875,24.7656 L165.5469,24.7656 L165.125,25.7969 L165.5469,25.7969 Q166.1563,25.7969 166.4219,26.0313 Q166.6875,26.2656 166.6875,26.6563 Q166.6875,27.0313 166.4219,27.2656 Q166.1563,27.5 165.5469,27.5 L163.25,27.5 Q162.6406,27.5 162.3906,27.2656 Q162.125,27.0313 162.125,26.6406 Q162.125,26.2656 162.4063,26.0313 Q162.6719,25.7813 163.2969,25.7969 L165.9688,19.1406 L164.8594,19.1406 Q164.25,19.1406 163.9844,18.9063 Q163.7188,18.6719 163.7188,18.2813 Q163.7188,17.9063 163.9844,17.6719 Q164.25,17.4375 164.8594,17.4375 L168.5313,17.4375 L171.9219,25.7969 Q172.5156,25.7969 172.7031,25.9375 Q173.0938,26.2031 173.0938,26.6563 Q173.0938,27.0313 172.8281,27.2656 Q172.5781,27.5 171.9688,27.5 L169.6719,27.5 Q169.0625,27.5 168.7969,27.2656 Q168.5313,27.0313 168.5313,26.6406 Q168.5313,26.2656 168.7969,26.0313 Q169.0625,25.7969 169.6719,25.7969 L170.0938,25.7969 L169.6875,24.7656 Z M168.9688,23.0625 L167.6094,19.6875 L166.2344,23.0625 L168.9688,23.0625 Z " fill="#000000"/><text fill="#000000" font-family="sans-serif" font-size="14" font-style="italic" lengthAdjust="spacing" textLength="40.4688" x="181.5" y="28.7969">Coche</text><line style="stroke:#181818;stroke-width:0.5;" x1="153.5" x2="223.9688" y1="39" y2="39"/><line style="stroke:#181818;stroke-width:0.5;" x1="153.5" x2="223.9688" y1="47" y2="47"/></g><!--class Moto--><g id="elem_Moto"><rect codeLine="3" fill="#F1F1F1" height="48" id="Moto" rx="2.5" ry="2.5" style="stroke:#181818;stroke-width:0.5;" width="63.124" x="260" y="7"/><ellipse cx="275" cy="23" fill="#A9DCDF" rx="11" ry="11" style="stroke:#181818;stroke-width:1.0;"/><path d="M277.1875,24.7656 L273.0469,24.7656 L272.625,25.7969 L273.0469,25.7969 Q273.6563,25.7969 273.9219,26.0313 Q274.1875,26.2656 274.1875,26.6563 Q274.1875,27.0313 273.9219,27.2656 Q273.6563,27.5 273.0469,27.5 L270.75,27.5 Q270.1406,27.5 269.8906,27.2656 Q269.625,27.0313 269.625,26.6406 Q269.625,26.2656 269.9063,26.0313 Q270.1719,25.7813 270.7969,25.7969 L273.4688,19.1406 L272.3594,19.1406 Q271.75,19.1406 271.4844,18.9063 Q271.2188,18.6719 271.2188,18.2813 Q271.2188,17.9063 271.4844,17.6719 Q271.75,17.4375 272.3594,17.4375 L276.0313,17.4375 L279.4219,25.7969 Q280.0156,25.7969 280.2031,25.9375 Q280.5938,26.2031 280.5938,26.6563 Q280.5938,27.0313 280.3281,27.2656 Q280.0781,27.5 279.4688,27.5 L277.1719,27.5 Q276.5625,27.5 276.2969,27.2656 Q276.0313,27.0313 276.0313,26.6406 Q276.0313,26.2656 276.2969,26.0313 Q276.5625,25.7969 277.1719,25.7969 L277.5938,25.7969 L277.1875,24.7656 Z M276.4688,23.0625 L275.1094,19.6875 L273.7344,23.0625 L276.4688,23.0625 Z " fill="#000000"/><text fill="#000000" font-family="sans-serif" font-size="14" font-style="italic" lengthAdjust="spacing" textLength="31.124" x="289" y="28.7969">Moto</text><line style="stroke:#181818;stroke-width:0.5;" x1="261" x2="322.124" y1="39" y2="39"/><line style="stroke:#181818;stroke-width:0.5;" x1="261" x2="322.124" y1="47" y2="47"/></g><!--class Camion--><g id="elem_Camion"><rect codeLine="4" fill="#F1F1F1" height="48" id="Camion" rx="2.5" ry="2.5" style="stroke:#181818;stroke-width:0.5;" width="80.2412" x="358.5" y="7"/><ellipse cx="373.5" cy="23" fill="#A9DCDF" rx="11" ry="11" style="stroke:#181818;stroke-width:1.0;"/><path d="M375.6875,24.7656 L371.5469,24.7656 L371.125,25.7969 L371.5469,25.7969 Q372.1563,25.7969 372.4219,26.0313 Q372.6875,26.2656 372.6875,26.6563 Q372.6875,27.0313 372.4219,27.2656 Q372.1563,27.5 371.5469,27.5 L369.25,27.5 Q368.6406,27.5 368.3906,27.2656 Q368.125,27.0313 368.125,26.6406 Q368.125,26.2656 368.4063,26.0313 Q368.6719,25.7813 369.2969,25.7969 L371.9688,19.1406 L370.8594,19.1406 Q370.25,19.1406 369.9844,18.9063 Q369.7188,18.6719 369.7188,18.2813 Q369.7188,17.9063 369.9844,17.6719 Q370.25,17.4375 370.8594,17.4375 L374.5313,17.4375 L377.9219,25.7969 Q378.5156,25.7969 378.7031,25.9375 Q379.0938,26.2031 379.0938,26.6563 Q379.0938,27.0313 378.8281,27.2656 Q378.5781,27.5 377.9688,27.5 L375.6719,27.5 Q375.0625,27.5 374.7969,27.2656 Q374.5313,27.0313 374.5313,26.6406 Q374.5313,26.2656 374.7969,26.0313 Q375.0625,25.7969 375.6719,25.7969 L376.0938,25.7969 L375.6875,24.7656 Z M374.9688,23.0625 L373.6094,19.6875 L372.2344,23.0625 L374.9688,23.0625 Z " fill="#000000"/><text fill="#000000" font-family="sans-serif" font-size="14" font-style="italic" lengthAdjust="spacing" textLength="48.2412" x="387.5" y="28.7969">Camion</text><line style="stroke:#181818;stroke-width:0.5;" x1="359.5" x2="437.7412" y1="39" y2="39"/><line style="stroke:#181818;stroke-width:0.5;" x1="359.5" x2="437.7412" y1="47" y2="47"/></g><!--class Sedan--><g id="elem_Sedan"><rect codeLine="5" fill="#F1F1F1" height="48" id="Sedan" rx="2.5" ry="2.5" style="stroke:#181818;stroke-width:0.5;" width="72.4824" x="473.5" y="7"/><ellipse cx="488.5" cy="23" fill="#ADD1B2" rx="11" ry="11" style="stroke:#181818;stroke-width:1.0;"/><path d="M491.2656,18.875 Q491.4219,18.6563 491.6094,18.5469 Q491.7969,18.4375 492.0156,18.4375 Q492.3906,18.4375 492.625,18.7031 Q492.8594,18.9531 492.8594,19.5625 L492.8594,21.0156 Q492.8594,21.625 492.625,21.8906 Q492.3906,22.1563 492.0156,22.1563 Q491.6719,22.1563 491.4688,21.9531 Q491.2656,21.7656 491.1563,21.25 Q491.1094,20.8906 490.9219,20.7031 Q490.5938,20.3281 489.9844,20.1094 Q489.375,19.8906 488.75,19.8906 Q487.9844,19.8906 487.3438,20.2188 Q486.7188,20.5469 486.2188,21.2969 Q485.7344,22.0469 485.7344,23.0781 L485.7344,24.1719 Q485.7344,25.4063 486.625,26.2344 Q487.5156,27.0469 489.1094,27.0469 Q490.0469,27.0469 490.7031,26.7969 Q491.0938,26.6406 491.5156,26.2031 Q491.7813,25.9375 491.9219,25.8594 Q492.0781,25.7813 492.2813,25.7813 Q492.6094,25.7813 492.8594,26.0469 Q493.125,26.2969 493.125,26.6406 Q493.125,26.9844 492.7813,27.3906 Q492.2813,27.9688 491.4844,28.2969 Q490.4063,28.75 489.1094,28.75 Q487.5938,28.75 486.3906,28.125 Q485.4063,27.625 484.7188,26.5625 Q484.0313,25.4844 484.0313,24.2031 L484.0313,23.0469 Q484.0313,21.7188 484.6406,20.5781 Q485.2656,19.4219 486.3594,18.8125 Q487.4531,18.1875 488.6875,18.1875 Q489.4219,18.1875 490.0625,18.3594 Q490.7188,18.5156 491.2656,18.875 Z " fill="#000000"/><text fill="#000000" font-family="sans-serif" font-size="14" lengthAdjust="spacing" textLength="40.4824" x="502.5" y="28.7969">Sedan</text><line style="stroke:#181818;stroke-width:0.5;" x1="474.5" x2="544.9824" y1="39" y2="39"/><line style="stroke:#181818;stroke-width:0.5;" x1="474.5" x2="544.9824" y1="47" y2="47"/></g><!--class SUV--><g id="elem_SUV"><rect codeLine="6" fill="#F1F1F1" height="48" id="SUV" rx="2.5" ry="2.5" style="stroke:#181818;stroke-width:0.5;" width="60.7861" x="44" y="115"/><ellipse cx="59" cy="131" fill="#ADD1B2" rx="11" ry="11" style="stroke:#181818;stroke-width:1.0;"/><path d="M61.7656,126.875 Q61.9219,126.6563 62.1094,126.5469 Q62.2969,126.4375 62.5156,126.4375 Q62.8906,126.4375 63.125,126.7031 Q63.3594,126.9531 63.3594,127.5625 L63.3594,129.0156 Q63.3594,129.625 63.125,129.8906 Q62.8906,130.1563 62.5156,130.1563 Q62.1719,130.1563 61.9688,129.9531 Q61.7656,129.7656 61.6563,129.25 Q61.6094,128.8906 61.4219,128.7031 Q61.0938,128.3281 60.4844,128.1094 Q59.875,127.8906 59.25,127.8906 Q58.4844,127.8906 57.8438,128.2188 Q57.2188,128.5469 56.7188,129.2969 Q56.2344,130.0469 56.2344,131.0781 L56.2344,132.1719 Q56.2344,133.4063 57.125,134.2344 Q58.0156,135.0469 59.6094,135.0469 Q60.5469,135.0469 61.2031,134.7969 Q61.5938,134.6406 62.0156,134.2031 Q62.2813,133.9375 62.4219,133.8594 Q62.5781,133.7813 62.7813,133.7813 Q63.1094,133.7813 63.3594,134.0469 Q63.625,134.2969 63.625,134.6406 Q63.625,134.9844 63.2813,135.3906 Q62.7813,135.9688 61.9844,136.2969 Q60.9063,136.75 59.6094,136.75 Q58.0938,136.75 56.8906,136.125 Q55.9063,135.625 55.2188,134.5625 Q54.5313,133.4844 54.5313,132.2031 L54.5313,131.0469 Q54.5313,129.7188 55.1406,128.5781 Q55.7656,127.4219 56.8594,126.8125 Q57.9531,126.1875 59.1875,126.1875 Q59.9219,126.1875 60.5625,126.3594 Q61.2188,126.5156 61.7656,126.875 Z " fill="#000000"/><text fill="#000000" font-family="sans-serif" font-size="14" lengthAdjust="spacing" textLength="28.7861" x="73" y="136.7969">SUV</text><line style="stroke:#181818;stroke-width:0.5;" x1="45" x2="103.7861" y1="147" y2="147"/><line style="stroke:#181818;stroke-width:0.5;" x1="45" x2="103.7861" y1="155" y2="155"/></g><!--class Deportivo--><g id="elem_Deportivo"><rect codeLine="7" fill="#F1F1F1" height="48" id="Deportivo" rx="2.5" ry="2.5" style="stroke:#181818;stroke-width:0.5;" width="91.917" x="140.5" y="115"/><ellipse cx="155.5" cy="131" fill="#ADD1B2" rx="11" ry="11" style="stroke:#181818;stroke-width:1.0;"/><path d="M158.2656,126.875 Q158.4219,126.6563 158.6094,126.5469 Q158.7969,126.4375 159.0156,126.4375 Q159.3906,126.4375 159.625,126.7031 Q159.8594,126.9531 159.8594,127.5625 L159.8594,129.0156 Q159.8594,129.625 159.625,129.8906 Q159.3906,130.1563 159.0156,130.1563 Q158.6719,130.1563 158.4688,129.9531 Q158.2656,129.7656 158.1563,129.25 Q158.1094,128.8906 157.9219,128.7031 Q157.5938,128.3281 156.9844,128.1094 Q156.375,127.8906 155.75,127.8906 Q154.9844,127.8906 154.3438,128.2188 Q153.7188,128.5469 153.2188,129.2969 Q152.7344,130.0469 152.7344,131.0781 L152.7344,132.1719 Q152.7344,133.4063 153.625,134.2344 Q154.5156,135.0469 156.1094,135.0469 Q157.0469,135.0469 157.7031,134.7969 Q158.0938,134.6406 158.5156,134.2031 Q158.7813,133.9375 158.9219,133.8594 Q159.0781,133.7813 159.2813,133.7813 Q159.6094,133.7813 159.8594,134.0469 Q160.125,134.2969 160.125,134.6406 Q160.125,134.9844 159.7813,135.3906 Q159.2813,135.9688 158.4844,136.2969 Q157.4063,136.75 156.1094,136.75 Q154.5938,136.75 153.3906,136.125 Q152.4063,135.625 151.7188,134.5625 Q151.0313,133.4844 151.0313,132.2031 L151.0313,131.0469 Q151.0313,129.7188 151.6406,128.5781 Q152.2656,127.4219 153.3594,126.8125 Q154.4531,126.1875 155.6875,126.1875 Q156.4219,126.1875 157.0625,126.3594 Q157.7188,126.5156 158.2656,126.875 Z " fill="#000000"/><text fill="#000000" font-family="sans-serif" font-size="14" lengthAdjust="spacing" textLength="59.917" x="169.5" y="136.7969">Deportivo</text><line style="stroke:#181818;stroke-width:0.5;" x1="141.5" x2="231.417" y1="147" y2="147"/><line style="stroke:#181818;stroke-width:0.5;" x1="141.5" x2="231.417" y1="155" y2="155"/></g><!--class MotoDeportiva--><g id="elem_MotoDeportiva"><rect codeLine="8" fill="#F1F1F1" height="48" id="MotoDeportiva" rx="2.5" ry="2.5" style="stroke:#181818;stroke-width:0.5;" width="123.041" x="268" y="115"/><ellipse cx="283" cy="131" fill="#ADD1B2" rx="11" ry="11" style="stroke:#181818;stroke-width:1.0;"/><path d="M285.7656,126.875 Q285.9219,126.6563 286.1094,126.5469 Q286.2969,126.4375 286.5156,126.4375 Q286.8906,126.4375 287.125,126.7031 Q287.3594,126.9531 287.3594,127.5625 L287.3594,129.0156 Q287.3594,129.625 287.125,129.8906 Q286.8906,130.1563 286.5156,130.1563 Q286.1719,130.1563 285.9688,129.9531 Q285.7656,129.7656 285.6563,129.25 Q285.6094,128.8906 285.4219,128.7031 Q285.0938,128.3281 284.4844,128.1094 Q283.875,127.8906 283.25,127.8906 Q282.4844,127.8906 281.8438,128.2188 Q281.2188,128.5469 280.7188,129.2969 Q280.2344,130.0469 280.2344,131.0781 L280.2344,132.1719 Q280.2344,133.4063 281.125,134.2344 Q282.0156,135.0469 283.6094,135.0469 Q284.5469,135.0469 285.2031,134.7969 Q285.5938,134.6406 286.0156,134.2031 Q286.2813,133.9375 286.4219,133.8594 Q286.5781,133.7813 286.7813,133.7813 Q287.1094,133.7813 287.3594,134.0469 Q287.625,134.2969 287.625,134.6406 Q287.625,134.9844 287.2813,135.3906 Q286.7813,135.9688 285.9844,136.2969 Q284.9063,136.75 283.6094,136.75 Q282.0938,136.75 280.8906,136.125 Q279.9063,135.625 279.2188,134.5625 Q278.5313,133.4844 278.5313,132.2031 L278.5313,131.0469 Q278.5313,129.7188 279.1406,128.5781 Q279.7656,127.4219 280.8594,126.8125 Q281.9531,126.1875 283.1875,126.1875 Q283.9219,126.1875 284.5625,126.3594 Q285.2188,126.5156 285.7656,126.875 Z " fill="#000000"/><text fill="#000000" font-family="sans-serif" font-size="14" lengthAdjust="spacing" textLength="91.041" x="297" y="136.7969">MotoDeportiva</text><line style="stroke:#181818;stroke-width:0.5;" x1="269" x2="390.041" y1="147" y2="147"/><line style="stroke:#181818;stroke-width:0.5;" x1="269" x2="390.041" y1="155" y2="155"/></g><!--class Scooter--><g id="elem_Scooter"><rect codeLine="9" fill="#F1F1F1" height="48" id="Scooter" rx="2.5" ry="2.5" style="stroke:#181818;stroke-width:0.5;" width="80.248" x="426.5" y="115"/><ellipse cx="441.5" cy="131" fill="#ADD1B2" rx="11" ry="11" style="stroke:#181818;stroke-width:1.0;"/><path d="M444.2656,126.875 Q444.4219,126.6563 444.6094,126.5469 Q444.7969,126.4375 445.0156,126.4375 Q445.3906,126.4375 445.625,126.7031 Q445.8594,126.9531 445.8594,127.5625 L445.8594,129.0156 Q445.8594,129.625 445.625,129.8906 Q445.3906,130.1563 445.0156,130.1563 Q444.6719,130.1563 444.4688,129.9531 Q444.2656,129.7656 444.1563,129.25 Q444.1094,128.8906 443.9219,128.7031 Q443.5938,128.3281 442.9844,128.1094 Q442.375,127.8906 441.75,127.8906 Q440.9844,127.8906 440.3438,128.2188 Q439.7188,128.5469 439.2188,129.2969 Q438.7344,130.0469 438.7344,131.0781 L438.7344,132.1719 Q438.7344,133.4063 439.625,134.2344 Q440.5156,135.0469 442.1094,135.0469 Q443.0469,135.0469 443.7031,134.7969 Q444.0938,134.6406 444.5156,134.2031 Q444.7813,133.9375 444.9219,133.8594 Q445.0781,133.7813 445.2813,133.7813 Q445.6094,133.7813 445.8594,134.0469 Q446.125,134.2969 446.125,134.6406 Q446.125,134.9844 445.7813,135.3906 Q445.2813,135.9688 444.4844,136.2969 Q443.4063,136.75 442.1094,136.75 Q440.5938,136.75 439.3906,136.125 Q438.4063,135.625 437.7188,134.5625 Q437.0313,133.4844 437.0313,132.2031 L437.0313,131.0469 Q437.0313,129.7188 437.6406,128.5781 Q438.2656,127.4219 439.3594,126.8125 Q440.4531,126.1875 441.6875,126.1875 Q442.4219,126.1875 443.0625,126.3594 Q443.7188,126.5156 444.2656,126.875 Z " fill="#000000"/><text fill="#000000" font-family="sans-serif" font-size="14" lengthAdjust="spacing" textLength="48.248" x="455.5" y="136.7969">Scooter</text><line style="stroke:#181818;stroke-width:0.5;" x1="427.5" x2="505.748" y1="147" y2="147"/><line style="stroke:#181818;stroke-width:0.5;" x1="427.5" x2="505.748" y1="155" y2="155"/></g><!--class Persona--><g id="elem_Persona"><rect codeLine="10" fill="#F1F1F1" height="48" id="Persona" rx="2.5" ry="2.5" style="stroke:#181818;stroke-width:0.5;" width="84.1445" x="541.5" y="115"/><ellipse cx="556.5" cy="131" fill="#ADD1B2" rx="11" ry="11" style="stroke:#181818;stroke-width:1.0;"/><path d="M559.2656,126.875 Q559.4219,126.6563 559.6094,126.5469 Q559.7969,126.4375 560.0156,126.4375 Q560.3906,126.4375 560.625,126.7031 Q560.8594,126.9531 560.8594,127.5625 L560.8594,129.0156 Q560.8594,129.625 560.625,129.8906 Q560.3906,130.1563 560.0156,130.1563 Q559.6719,130.1563 559.4688,129.9531 Q559.2656,129.7656 559.1563,129.25 Q559.1094,128.8906 558.9219,128.7031 Q558.5938,128.3281 557.9844,128.1094 Q557.375,127.8906 556.75,127.8906 Q555.9844,127.8906 555.3438,128.2188 Q554.7188,128.5469 554.2188,129.2969 Q553.7344,130.0469 553.7344,131.0781 L553.7344,132.1719 Q553.7344,133.4063 554.625,134.2344 Q555.5156,135.0469 557.1094,135.0469 Q558.0469,135.0469 558.7031,134.7969 Q559.0938,134.6406 559.5156,134.2031 Q559.7813,133.9375 559.9219,133.8594 Q560.0781,133.7813 560.2813,133.7813 Q560.6094,133.7813 560.8594,134.0469 Q561.125,134.2969 561.125,134.6406 Q561.125,134.9844 560.7813,135.3906 Q560.2813,135.9688 559.4844,136.2969 Q558.4063,136.75 557.1094,136.75 Q555.5938,136.75 554.3906,136.125 Q553.4063,135.625 552.7188,134.5625 Q552.0313,133.4844 552.0313,132.2031 L552.0313,131.0469 Q552.0313,129.7188 552.6406,128.5781 Q553.2656,127.4219 554.3594,126.8125 Q555.4531,126.1875 556.6875,126.1875 Q557.4219,126.1875 558.0625,126.3594 Q558.7188,126.5156 559.2656,126.875 Z " fill="#000000"/><text fill="#000000" font-family="sans-serif" font-size="14" lengthAdjust="spacing" textLength="52.1445" x="570.5" y="136.7969">Persona</text><line style="stroke:#181818;stroke-width:0.5;" x1="542.5" x2="624.6445" y1="147" y2="147"/><line style="stroke:#181818;stroke-width:0.5;" x1="542.5" x2="624.6445" y1="155" y2="155"/></g><!--class Valorable--><g id="elem_Valorable"><rect codeLine="11" fill="#F1F1F1" height="48" id="Valorable" rx="2.5" ry="2.5" style="stroke:#181818;stroke-width:0.5;" width="91.1514" x="29" y="260"/><ellipse cx="44" cy="276" fill="#B4A7E5" rx="11" ry="11" style="stroke:#181818;stroke-width:1.0;"/><path d="M44.9531,272.6406 L44.9531,279.2969 L46.6719,279.2969 Q47.2813,279.2969 47.5469,279.5313 Q47.8125,279.7656 47.8125,280.1563 Q47.8125,280.5313 47.5469,280.7656 Q47.2813,281 46.6719,281 L41.5313,281 Q40.9219,281 40.6563,280.7656 Q40.3906,280.5313 40.3906,280.1406 Q40.3906,279.7656 40.6563,279.5313 Q40.9219,279.2969 41.5313,279.2969 L43.25,279.2969 L43.25,272.6406 L41.5313,272.6406 Q40.9219,272.6406 40.6563,272.4063 Q40.3906,272.1719 40.3906,271.7813 Q40.3906,271.4063 40.6563,271.1719 Q40.9219,270.9375 41.5313,270.9375 L46.6719,270.9375 Q47.2813,270.9375 47.5469,271.1719 Q47.8125,271.4063 47.8125,271.7813 Q47.8125,272.1719 47.5469,272.4063 Q47.2813,272.6406 46.6719,272.6406 L44.9531,272.6406 Z " fill="#000000"/><text fill="#000000" font-family="sans-serif" font-size="14" font-style="italic" lengthAdjust="spacing" textLength="59.1514" x="58" y="281.7969">Valorable</text><line style="stroke:#181818;stroke-width:0.5;" x1="30" x2="119.1514" y1="292" y2="292"/><line style="stroke:#181818;stroke-width:0.5;" x1="30" x2="119.1514" y1="300" y2="300"/></g><!--class Estado--><g id="elem_Estado"><rect codeLine="14" fill="#F1F1F1" height="85.2422" id="Estado" rx="2.5" ry="2.5" style="stroke:#181818;stroke-width:0.5;" width="96.0273" x="155.5" y="241.5"/><ellipse cx="179.6986" cy="257.5" fill="#EB937F" rx="11" ry="11" style="stroke:#181818;stroke-width:1.0;"/><path d="M178.558,258.2969 L178.558,260.7969 L182.8861,260.7969 L182.8861,259.875 Q182.8861,259.2656 183.1205,259 Q183.3705,258.7344 183.7455,258.7344 Q184.1205,258.7344 184.3549,259 Q184.5893,259.2656 184.5893,259.875 L184.5893,262.5 L176.5893,262.5 Q175.9643,262.5 175.6986,262.2656 Q175.4486,262.0313 175.4486,261.6406 Q175.4486,261.2656 175.7143,261.0313 Q175.9799,260.7969 176.5893,260.7969 L176.8549,260.7969 L176.8549,254.1406 L176.5893,254.1406 Q175.9643,254.1406 175.6986,253.9063 Q175.4486,253.6719 175.4486,253.2813 Q175.4486,252.9063 175.6986,252.6719 Q175.9643,252.4375 176.5893,252.4375 L184.2143,252.4375 L184.2143,255.0313 Q184.2143,255.6406 183.9799,255.9063 Q183.7611,256.1563 183.3705,256.1563 Q182.9955,256.1563 182.7611,255.9063 Q182.5268,255.6406 182.5268,255.0313 L182.5268,254.1406 L178.558,254.1406 L178.558,256.5938 L180.0424,256.5938 Q180.0424,255.9375 180.1674,255.75 Q180.433,255.3438 180.9018,255.3438 Q181.2768,255.3438 181.5111,255.6094 Q181.7455,255.8594 181.7455,256.4688 L181.7455,258.4375 Q181.7455,258.9844 181.6205,259.1719 Q181.3549,259.5625 180.9018,259.5625 Q180.433,259.5625 180.1674,259.1563 Q180.0424,258.9688 180.0424,258.2969 L178.558,258.2969 Z " fill="#000000"/><text fill="#000000" font-family="sans-serif" font-size="14" lengthAdjust="spacing" textLength="43.5859" x="195.7428" y="263.2969">Estado</text><line style="stroke:#181818;stroke-width:0.5;" x1="156.5" x2="250.5273" y1="273.5" y2="273.5"/><text fill="#000000" font-family="sans-serif" font-size="14" lengthAdjust="spacing" textLength="84.0273" x="161.5" y="292.6074">DISPONIBLE</text><text fill="#000000" font-family="sans-serif" font-size="14" lengthAdjust="spacing" textLength="63.7861" x="161.5" y="311.2285">VENDIDO</text><line style="stroke:#181818;stroke-width:0.5;" x1="156.5" x2="250.5273" y1="318.7422" y2="318.7422"/></g><!--class Riesgo--><g id="elem_Riesgo"><rect codeLine="19" fill="#F1F1F1" height="103.8633" id="Riesgo" rx="2.5" ry="2.5" style="stroke:#181818;stroke-width:0.5;" width="120.1309" x="286.5" y="232"/><ellipse cx="321.5483" cy="248" fill="#EB937F" rx="11" ry="11" style="stroke:#181818;stroke-width:1.0;"/><path d="M320.4077,248.7969 L320.4077,251.2969 L324.7358,251.2969 L324.7358,250.375 Q324.7358,249.7656 324.9702,249.5 Q325.2202,249.2344 325.5952,249.2344 Q325.9702,249.2344 326.2045,249.5 Q326.4389,249.7656 326.4389,250.375 L326.4389,253 L318.4389,253 Q317.8139,253 317.5483,252.7656 Q317.2983,252.5313 317.2983,252.1406 Q317.2983,251.7656 317.5639,251.5313 Q317.8295,251.2969 318.4389,251.2969 L318.7045,251.2969 L318.7045,244.6406 L318.4389,244.6406 Q317.8139,244.6406 317.5483,244.4063 Q317.2983,244.1719 317.2983,243.7813 Q317.2983,243.4063 317.5483,243.1719 Q317.8139,242.9375 318.4389,242.9375 L326.0639,242.9375 L326.0639,245.5313 Q326.0639,246.1406 325.8295,246.4063 Q325.6108,246.6563 325.2202,246.6563 Q324.8452,246.6563 324.6108,246.4063 Q324.3764,246.1406 324.3764,245.5313 L324.3764,244.6406 L320.4077,244.6406 L320.4077,247.0938 L321.892,247.0938 Q321.892,246.4375 322.017,246.25 Q322.2827,245.8438 322.7514,245.8438 Q323.1264,245.8438 323.3608,246.1094 Q323.5952,246.3594 323.5952,246.9688 L323.5952,248.9375 Q323.5952,249.4844 323.4702,249.6719 Q323.2045,250.0625 322.7514,250.0625 Q322.2827,250.0625 322.017,249.6563 Q321.892,249.4688 321.892,248.7969 L320.4077,248.7969 Z " fill="#000000"/><text fill="#000000" font-family="sans-serif" font-size="14" lengthAdjust="spacing" textLength="43.5791" x="340.0035" y="253.7969">Riesgo</text><line style="stroke:#181818;stroke-width:0.5;" x1="287.5" x2="405.6309" y1="264" y2="264"/><text fill="#000000" font-family="sans-serif" font-size="14" lengthAdjust="spacing" textLength="98.8066" x="292.5" y="283.1074">ALTO_RIESGO</text><text fill="#000000" font-family="sans-serif" font-size="14" lengthAdjust="spacing" textLength="108.1309" x="292.5" y="301.7285">MEDIO_RIESGO</text><text fill="#000000" font-family="sans-serif" font-size="14" lengthAdjust="spacing" textLength="98.8066" x="292.5" y="320.3496">BAJO_RIESGO</text><line style="stroke:#181818;stroke-width:0.5;" x1="287.5" x2="405.6309" y1="327.8633" y2="327.8633"/></g><!--class TipoCombustible--><g id="elem_TipoCombustible"><rect codeLine="25" fill="#F1F1F1" height="122.4844" id="TipoCombustible" rx="2.5" ry="2.5" style="stroke:#181818;stroke-width:0.5;" width="137.0479" x="442" y="223"/><ellipse cx="457" cy="239" fill="#EB937F" rx="11" ry="11" style="stroke:#181818;stroke-width:1.0;"/><path d="M455.8594,239.7969 L455.8594,242.2969 L460.1875,242.2969 L460.1875,241.375 Q460.1875,240.7656 460.4219,240.5 Q460.6719,240.2344 461.0469,240.2344 Q461.4219,240.2344 461.6563,240.5 Q461.8906,240.7656 461.8906,241.375 L461.8906,244 L453.8906,244 Q453.2656,244 453,243.7656 Q452.75,243.5313 452.75,243.1406 Q452.75,242.7656 453.0156,242.5313 Q453.2813,242.2969 453.8906,242.2969 L454.1563,242.2969 L454.1563,235.6406 L453.8906,235.6406 Q453.2656,235.6406 453,235.4063 Q452.75,235.1719 452.75,234.7813 Q452.75,234.4063 453,234.1719 Q453.2656,233.9375 453.8906,233.9375 L461.5156,233.9375 L461.5156,236.5313 Q461.5156,237.1406 461.2813,237.4063 Q461.0625,237.6563 460.6719,237.6563 Q460.2969,237.6563 460.0625,237.4063 Q459.8281,237.1406 459.8281,236.5313 L459.8281,235.6406 L455.8594,235.6406 L455.8594,238.0938 L457.3438,238.0938 Q457.3438,237.4375 457.4688,237.25 Q457.7344,236.8438 458.2031,236.8438 Q458.5781,236.8438 458.8125,237.1094 Q459.0469,237.3594 459.0469,237.9688 L459.0469,239.9375 Q459.0469,240.4844 458.9219,240.6719 Q458.6563,241.0625 458.2031,241.0625 Q457.7344,241.0625 457.4688,240.6563 Q457.3438,240.4688 457.3438,239.7969 L455.8594,239.7969 Z " fill="#000000"/><text fill="#000000" font-family="sans-serif" font-size="14" lengthAdjust="spacing" textLength="105.0479" x="471" y="244.7969">TipoCombustible</text><line style="stroke:#181818;stroke-width:0.5;" x1="443" x2="578.0479" y1="255" y2="255"/><text fill="#000000" font-family="sans-serif" font-size="14" lengthAdjust="spacing" textLength="71.5791" x="448" y="274.1074">GASOLINA</text><text fill="#000000" font-family="sans-serif" font-size="14" lengthAdjust="spacing" textLength="49.7998" x="448" y="292.7285">DIESEL</text><text fill="#000000" font-family="sans-serif" font-size="14" lengthAdjust="spacing" textLength="58.3379" x="448" y="311.3496">H&#205;BRIDO</text><text fill="#000000" font-family="sans-serif" font-size="14" lengthAdjust="spacing" textLength="70.0137" x="448" y="329.9707">EL&#201;TRICO</text><line style="stroke:#181818;stroke-width:0.5;" x1="443" x2="578.0479" y1="337.4844" y2="337.4844"/></g><!--class Traccion--><g id="elem_Traccion"><rect codeLine="32" fill="#F1F1F1" height="103.8633" id="Traccion" rx="2.5" ry="2.5" style="stroke:#181818;stroke-width:0.5;" width="96.0205" x="614.5" y="232"/><ellipse cx="634.1521" cy="248" fill="#EB937F" rx="11" ry="11" style="stroke:#181818;stroke-width:1.0;"/><path d="M633.0114,248.7969 L633.0114,251.2969 L637.3396,251.2969 L637.3396,250.375 Q637.3396,249.7656 637.5739,249.5 Q637.8239,249.2344 638.1989,249.2344 Q638.5739,249.2344 638.8083,249.5 Q639.0427,249.7656 639.0427,250.375 L639.0427,253 L631.0427,253 Q630.4177,253 630.1521,252.7656 Q629.9021,252.5313 629.9021,252.1406 Q629.9021,251.7656 630.1677,251.5313 Q630.4333,251.2969 631.0427,251.2969 L631.3083,251.2969 L631.3083,244.6406 L631.0427,244.6406 Q630.4177,244.6406 630.1521,244.4063 Q629.9021,244.1719 629.9021,243.7813 Q629.9021,243.4063 630.1521,243.1719 Q630.4177,242.9375 631.0427,242.9375 L638.6677,242.9375 L638.6677,245.5313 Q638.6677,246.1406 638.4333,246.4063 Q638.2146,246.6563 637.8239,246.6563 Q637.4489,246.6563 637.2146,246.4063 Q636.9802,246.1406 636.9802,245.5313 L636.9802,244.6406 L633.0114,244.6406 L633.0114,247.0938 L634.4958,247.0938 Q634.4958,246.4375 634.6208,246.25 Q634.8864,245.8438 635.3552,245.8438 Q635.7302,245.8438 635.9646,246.1094 Q636.1989,246.3594 636.1989,246.9688 L636.1989,248.9375 Q636.1989,249.4844 636.0739,249.6719 Q635.8083,250.0625 635.3552,250.0625 Q634.8864,250.0625 634.6208,249.6563 Q634.4958,249.4688 634.4958,248.7969 L633.0114,248.7969 Z " fill="#000000"/><text fill="#000000" font-family="sans-serif" font-size="14" lengthAdjust="spacing" textLength="53.6826" x="649.1858" y="253.7969">Traccion</text><line style="stroke:#181818;stroke-width:0.5;" x1="615.5" x2="709.5205" y1="264" y2="264"/><text fill="#000000" font-family="sans-serif" font-size="14" lengthAdjust="spacing" textLength="84.0205" x="620.5" y="283.1074">DELANTERA</text><text fill="#000000" font-family="sans-serif" font-size="14" lengthAdjust="spacing" textLength="66.124" x="620.5" y="301.7285">TRASERA</text><text fill="#000000" font-family="sans-serif" font-size="14" lengthAdjust="spacing" textLength="24.9102" x="620.5" y="320.3496">4X4</text><line style="stroke:#181818;stroke-width:0.5;" x1="615.5" x2="709.5205" y1="327.8633" y2="327.8633"/></g><!--class TipoTransmision--><g id="elem_TipoTransmision"><rect codeLine="38" fill="#F1F1F1" height="85.2422" id="TipoTransmision" rx="2.5" ry="2.5" style="stroke:#181818;stroke-width:0.5;" width="135.4756" x="7" y="414.5"/><ellipse cx="22" cy="430.5" fill="#EB937F" rx="11" ry="11" style="stroke:#181818;stroke-width:1.0;"/><path d="M20.8594,431.2969 L20.8594,433.7969 L25.1875,433.7969 L25.1875,432.875 Q25.1875,432.2656 25.4219,432 Q25.6719,431.7344 26.0469,431.7344 Q26.4219,431.7344 26.6563,432 Q26.8906,432.2656 26.8906,432.875 L26.8906,435.5 L18.8906,435.5 Q18.2656,435.5 18,435.2656 Q17.75,435.0313 17.75,434.6406 Q17.75,434.2656 18.0156,434.0313 Q18.2813,433.7969 18.8906,433.7969 L19.1563,433.7969 L19.1563,427.1406 L18.8906,427.1406 Q18.2656,427.1406 18,426.9063 Q17.75,426.6719 17.75,426.2813 Q17.75,425.9063 18,425.6719 Q18.2656,425.4375 18.8906,425.4375 L26.5156,425.4375 L26.5156,428.0313 Q26.5156,428.6406 26.2813,428.9063 Q26.0625,429.1563 25.6719,429.1563 Q25.2969,429.1563 25.0625,428.9063 Q24.8281,428.6406 24.8281,428.0313 L24.8281,427.1406 L20.8594,427.1406 L20.8594,429.5938 L22.3438,429.5938 Q22.3438,428.9375 22.4688,428.75 Q22.7344,428.3438 23.2031,428.3438 Q23.5781,428.3438 23.8125,428.6094 Q24.0469,428.8594 24.0469,429.4688 L24.0469,431.4375 Q24.0469,431.9844 23.9219,432.1719 Q23.6563,432.5625 23.2031,432.5625 Q22.7344,432.5625 22.4688,432.1563 Q22.3438,431.9688 22.3438,431.2969 L20.8594,431.2969 Z " fill="#000000"/><text fill="#000000" font-family="sans-serif" font-size="14" lengthAdjust="spacing" textLength="103.4756" x="36" y="436.2969">TipoTransmision</text><line style="stroke:#181818;stroke-width:0.5;" x1="8" x2="141.4756" y1="446.5" y2="446.5"/><text fill="#000000" font-family="sans-serif" font-size="14" lengthAdjust="spacing" textLength="58.3447" x="13" y="465.6074">MANUAL</text><text fill="#000000" font-family="sans-serif" font-size="14" lengthAdjust="spacing" textLength="91.7793" x="13" y="484.2285">AUTOM&#193;TICA</text><line style="stroke:#181818;stroke-width:0.5;" x1="8" x2="141.4756" y1="491.7422" y2="491.7422"/></g><!--class NivelConfort--><g id="elem_NivelConfort"><rect codeLine="43" fill="#F1F1F1" height="103.8633" id="NivelConfort" rx="2.5" ry="2.5" style="stroke:#181818;stroke-width:0.5;" width="109.0273" x="177" y="405"/><ellipse cx="192" cy="421" fill="#EB937F" rx="11" ry="11" style="stroke:#181818;stroke-width:1.0;"/><path d="M190.8594,421.7969 L190.8594,424.2969 L195.1875,424.2969 L195.1875,423.375 Q195.1875,422.7656 195.4219,422.5 Q195.6719,422.2344 196.0469,422.2344 Q196.4219,422.2344 196.6563,422.5 Q196.8906,422.7656 196.8906,423.375 L196.8906,426 L188.8906,426 Q188.2656,426 188,425.7656 Q187.75,425.5313 187.75,425.1406 Q187.75,424.7656 188.0156,424.5313 Q188.2813,424.2969 188.8906,424.2969 L189.1563,424.2969 L189.1563,417.6406 L188.8906,417.6406 Q188.2656,417.6406 188,417.4063 Q187.75,417.1719 187.75,416.7813 Q187.75,416.4063 188,416.1719 Q188.2656,415.9375 188.8906,415.9375 L196.5156,415.9375 L196.5156,418.5313 Q196.5156,419.1406 196.2813,419.4063 Q196.0625,419.6563 195.6719,419.6563 Q195.2969,419.6563 195.0625,419.4063 Q194.8281,419.1406 194.8281,418.5313 L194.8281,417.6406 L190.8594,417.6406 L190.8594,420.0938 L192.3438,420.0938 Q192.3438,419.4375 192.4688,419.25 Q192.7344,418.8438 193.2031,418.8438 Q193.5781,418.8438 193.8125,419.1094 Q194.0469,419.3594 194.0469,419.9688 L194.0469,421.9375 Q194.0469,422.4844 193.9219,422.6719 Q193.6563,423.0625 193.2031,423.0625 Q192.7344,423.0625 192.4688,422.6563 Q192.3438,422.4688 192.3438,421.7969 L190.8594,421.7969 Z " fill="#000000"/><text fill="#000000" font-family="sans-serif" font-size="14" lengthAdjust="spacing" textLength="77.0273" x="206" y="426.7969">NivelConfort</text><line style="stroke:#181818;stroke-width:0.5;" x1="178" x2="285.0273" y1="437" y2="437"/><text fill="#000000" font-family="sans-serif" font-size="14" lengthAdjust="spacing" textLength="52.9033" x="183" y="456.1074">B&#193;SICO</text><text fill="#000000" font-family="sans-serif" font-size="14" lengthAdjust="spacing" textLength="45.8896" x="183" y="474.7285">MEDIO</text><text fill="#000000" font-family="sans-serif" font-size="14" lengthAdjust="spacing" textLength="66.1104" x="183" y="493.3496">PREMIUM</text><line style="stroke:#181818;stroke-width:0.5;" x1="178" x2="285.0273" y1="500.8633" y2="500.8633"/></g><!--SRC=[PP11RiCW44NtSmgVeAjS01kKKc4xmjZghYA4D4Ys9p8acoYBBBlegNonuYPnctR5_yCRllXwxSEWJKXCgxrF6hjpvj3Y4-Z7YmpDpluTvXZm7wWxXprSJMKtUjPrSrFKxd48xeZmyynzfk-qGGnskBcL7Jps6bmVPrjjRDBe5WUzRYq0sFxG9Sm7lS7a14b2URKg2vuA5at32iff2USR9vtrxnD7X2hV96VLieISKJwRbBpC-hwbt1upxDO77rmCFS6ILANW1G4QGIRWUVnCvPJ3nFYX9Cz-xSPsJEmaPb8cIA6O9A0agQPpyRfu28bmxpldhtnEYfe88BKgy_6YU4Pck717ssRORsDjaKp7IpM5Vly4LfBblCxX_0K0]--></g></svg>