<svg xmlns="http://www.w3.org/2000/svg" xmlns:xlink="http://www.w3.org/1999/xlink" contentStyleType="text/css" height="928px" preserveAspectRatio="none" style="width:625px;height:928px;background:#FFFFFF;" version="1.1" viewBox="0 0 625 928" width="625px" zoomAndPan="magnify"><defs/><g><!--class Persona--><g id="elem_Persona"><rect codeLine="4" fill="#F1F1F1" height="196.9688" id="Persona" rx="2.5" ry="2.5" style="stroke:#181818;stroke-width:0.5;" width="240.7783" x="68.5" y="7"/><ellipse cx="158.5669" cy="23" fill="#ADD1B2" rx="11" ry="11" style="stroke:#181818;stroke-width:1.0;"/><path d="M161.3325,18.875 Q161.4888,18.6563 161.6763,18.5469 Q161.8638,18.4375 162.0825,18.4375 Q162.4575,18.4375 162.6919,18.7031 Q162.9263,18.9531 162.9263,19.5625 L162.9263,21.0156 Q162.9263,21.625 162.6919,21.8906 Q162.4575,22.1563 162.0825,22.1563 Q161.7388,22.1563 161.5356,21.9531 Q161.3325,21.7656 161.2231,21.25 Q161.1763,20.8906 160.9888,20.7031 Q160.6606,20.3281 160.0513,20.1094 Q159.4419,19.8906 158.8169,19.8906 Q158.0513,19.8906 157.4106,20.2188 Q156.7856,20.5469 156.2856,21.2969 Q155.8013,22.0469 155.8013,23.0781 L155.8013,24.1719 Q155.8013,25.4063 156.6919,26.2344 Q157.5825,27.0469 159.1763,27.0469 Q160.1138,27.0469 160.77,26.7969 Q161.1606,26.6406 161.5825,26.2031 Q161.8481,25.9375 161.9888,25.8594 Q162.145,25.7813 162.3481,25.7813 Q162.6763,25.7813 162.9263,26.0469 Q163.1919,26.2969 163.1919,26.6406 Q163.1919,26.9844 162.8481,27.3906 Q162.3481,27.9688 161.5513,28.2969 Q160.4731,28.75 159.1763,28.75 Q157.6606,28.75 156.4575,28.125 Q155.4731,27.625 154.7856,26.5625 Q154.0981,25.4844 154.0981,24.2031 L154.0981,23.0469 Q154.0981,21.7188 154.7075,20.5781 Q155.3325,19.4219 156.4263,18.8125 Q157.52,18.1875 158.7544,18.1875 Q159.4888,18.1875 160.1294,18.3594 Q160.7856,18.5156 161.3325,18.875 Z " fill="#000000"/><text fill="#000000" font-family="sans-serif" font-size="14" lengthAdjust="spacing" textLength="52.1445" x="179.0669" y="28.7969">Persona</text><line style="stroke:#181818;stroke-width:0.5;" x1="69.5" x2="308.2783" y1="39" y2="39"/><rect fill="none" height="6" style="stroke:#C82930;stroke-width:1.0;" width="6" x="76.5" y="50.8105"/><text fill="#000000" font-family="sans-serif" font-size="14" lengthAdjust="spacing" textLength="91.8203" x="88.5" y="58.1074">nombre: String</text><rect fill="none" height="6" style="stroke:#C82930;stroke-width:1.0;" width="6" x="76.5" y="69.4316"/><text fill="#000000" font-family="sans-serif" font-size="14" lengthAdjust="spacing" textLength="53.71" x="88.5" y="76.7285">edad: int</text><line style="stroke:#181818;stroke-width:0.5;" x1="69.5" x2="308.2783" y1="84.2422" y2="84.2422"/><ellipse cx="79.5" cy="99.0527" fill="#84BE84" rx="3" ry="3" style="stroke:#038048;stroke-width:1.0;"/><text fill="#000000" font-family="sans-serif" font-size="14" lengthAdjust="spacing" textLength="214.7783" x="88.5" y="103.3496">Persona(nombre: String, edad: int)</text><ellipse cx="79.5" cy="117.6738" fill="#84BE84" rx="3" ry="3" style="stroke:#038048;stroke-width:1.0;"/><text fill="#000000" font-family="sans-serif" font-size="14" lengthAdjust="spacing" textLength="122.9307" x="88.5" y="121.9707">getNombre(): String</text><ellipse cx="79.5" cy="136.2949" fill="#84BE84" rx="3" ry="3" style="stroke:#038048;stroke-width:1.0;"/><text fill="#000000" font-family="sans-serif" font-size="14" lengthAdjust="spacing" textLength="203.0752" x="88.5" y="140.5918">setNombre(nombre: String): void</text><ellipse cx="79.5" cy="154.916" fill="#84BE84" rx="3" ry="3" style="stroke:#038048;stroke-width:1.0;"/><text fill="#000000" font-family="sans-serif" font-size="14" lengthAdjust="spacing" textLength="84.0479" x="88.5" y="159.2129">getEdad(): int</text><ellipse cx="79.5" cy="173.5371" fill="#84BE84" rx="3" ry="3" style="stroke:#038048;stroke-width:1.0;"/><text fill="#000000" font-family="sans-serif" font-size="14" lengthAdjust="spacing" textLength="147.8682" x="88.5" y="177.834">setEdad(edad: int): void</text><ellipse cx="79.5" cy="192.1582" fill="#84BE84" rx="3" ry="3" style="stroke:#038048;stroke-width:1.0;"/><text fill="#000000" font-family="sans-serif" font-size="14" lengthAdjust="spacing" textLength="99.5928" x="88.5" y="196.4551">saludar(): String</text></g><!--class Estudiante--><g id="elem_Estudiante"><rect codeLine="16" fill="#F1F1F1" height="141.1055" id="Estudiante" rx="2.5" ry="2.5" style="stroke:#181818;stroke-width:0.5;" width="363.7158" x="7" y="780"/><ellipse cx="151.5288" cy="796" fill="#ADD1B2" rx="11" ry="11" style="stroke:#181818;stroke-width:1.0;"/><path d="M154.2944,791.875 Q154.4507,791.6563 154.6382,791.5469 Q154.8257,791.4375 155.0444,791.4375 Q155.4194,791.4375 155.6538,791.7031 Q155.8882,791.9531 155.8882,792.5625 L155.8882,794.0156 Q155.8882,794.625 155.6538,794.8906 Q155.4194,795.1563 155.0444,795.1563 Q154.7007,795.1563 154.4976,794.9531 Q154.2944,794.7656 154.1851,794.25 Q154.1382,793.8906 153.9507,793.7031 Q153.6226,793.3281 153.0132,793.1094 Q152.4038,792.8906 151.7788,792.8906 Q151.0132,792.8906 150.3726,793.2188 Q149.7476,793.5469 149.2476,794.2969 Q148.7632,795.0469 148.7632,796.0781 L148.7632,797.1719 Q148.7632,798.4063 149.6538,799.2344 Q150.5444,800.0469 152.1382,800.0469 Q153.0757,800.0469 153.7319,799.7969 Q154.1226,799.6406 154.5444,799.2031 Q154.8101,798.9375 154.9507,798.8594 Q155.1069,798.7813 155.3101,798.7813 Q155.6382,798.7813 155.8882,799.0469 Q156.1538,799.2969 156.1538,799.6406 Q156.1538,799.9844 155.8101,800.3906 Q155.3101,800.9688 154.5132,801.2969 Q153.4351,801.75 152.1382,801.75 Q150.6226,801.75 149.4194,801.125 Q148.4351,800.625 147.7476,799.5625 Q147.0601,798.4844 147.0601,797.2031 L147.0601,796.0469 Q147.0601,794.7188 147.6694,793.5781 Q148.2944,792.4219 149.3882,791.8125 Q150.4819,791.1875 151.7163,791.1875 Q152.4507,791.1875 153.0913,791.3594 Q153.7476,791.5156 154.2944,791.875 Z " fill="#000000"/><text fill="#000000" font-family="sans-serif" font-size="14" lengthAdjust="spacing" textLength="66.1582" x="172.0288" y="801.7969">Estudiante</text><line style="stroke:#181818;stroke-width:0.5;" x1="8" x2="369.7158" y1="812" y2="812"/><rect fill="none" height="6" style="stroke:#C82930;stroke-width:1.0;" width="6" x="15" y="823.8105"/><text fill="#000000" font-family="sans-serif" font-size="14" lengthAdjust="spacing" textLength="101.1445" x="27" y="831.1074">matricula: String</text><line style="stroke:#181818;stroke-width:0.5;" x1="8" x2="369.7158" y1="838.6211" y2="838.6211"/><ellipse cx="18" cy="853.4316" fill="#84BE84" rx="3" ry="3" style="stroke:#038048;stroke-width:1.0;"/><text fill="#000000" font-family="sans-serif" font-size="14" lengthAdjust="spacing" textLength="337.7158" x="27" y="857.7285">Estudiante(nombre: String, edad: int, matricula: String)</text><ellipse cx="18" cy="872.0527" fill="#84BE84" rx="3" ry="3" style="stroke:#038048;stroke-width:1.0;"/><text fill="#000000" font-family="sans-serif" font-size="14" lengthAdjust="spacing" textLength="129.9307" x="27" y="876.3496">getMatricula(): String</text><ellipse cx="18" cy="890.6738" fill="#84BE84" rx="3" ry="3" style="stroke:#038048;stroke-width:1.0;"/><text fill="#000000" font-family="sans-serif" font-size="14" lengthAdjust="spacing" textLength="219.3994" x="27" y="894.9707">setMatricula(matricula: String): void</text><ellipse cx="18" cy="909.2949" fill="#84BE84" rx="3" ry="3" style="stroke:#038048;stroke-width:1.0;"/><text fill="#000000" font-family="sans-serif" font-size="14" lengthAdjust="spacing" textLength="103.4824" x="27" y="913.5918">estudiar(): String</text></g><!--class Profesor--><g id="elem_Profesor"><rect codeLine="25" fill="#F1F1F1" height="141.1055" id="Profesor" rx="2.5" ry="2.5" style="stroke:#181818;stroke-width:0.5;" width="359.0537" x="259.5" y="265"/><ellipse cx="408.3218" cy="281" fill="#ADD1B2" rx="11" ry="11" style="stroke:#181818;stroke-width:1.0;"/><path d="M411.0874,276.875 Q411.2437,276.6563 411.4312,276.5469 Q411.6187,276.4375 411.8374,276.4375 Q412.2124,276.4375 412.4468,276.7031 Q412.6812,276.9531 412.6812,277.5625 L412.6812,279.0156 Q412.6812,279.625 412.4468,279.8906 Q412.2124,280.1563 411.8374,280.1563 Q411.4937,280.1563 411.2905,279.9531 Q411.0874,279.7656 410.978,279.25 Q410.9312,278.8906 410.7437,278.7031 Q410.4155,278.3281 409.8062,278.1094 Q409.1968,277.8906 408.5718,277.8906 Q407.8062,277.8906 407.1655,278.2188 Q406.5405,278.5469 406.0405,279.2969 Q405.5562,280.0469 405.5562,281.0781 L405.5562,282.1719 Q405.5562,283.4063 406.4468,284.2344 Q407.3374,285.0469 408.9312,285.0469 Q409.8687,285.0469 410.5249,284.7969 Q410.9155,284.6406 411.3374,284.2031 Q411.603,283.9375 411.7437,283.8594 Q411.8999,283.7813 412.103,283.7813 Q412.4312,283.7813 412.6812,284.0469 Q412.9468,284.2969 412.9468,284.6406 Q412.9468,284.9844 412.603,285.3906 Q412.103,285.9688 411.3062,286.2969 Q410.228,286.75 408.9312,286.75 Q407.4155,286.75 406.2124,286.125 Q405.228,285.625 404.5405,284.5625 Q403.853,283.4844 403.853,282.2031 L403.853,281.0469 Q403.853,279.7188 404.4624,278.5781 Q405.0874,277.4219 406.1812,276.8125 Q407.2749,276.1875 408.5093,276.1875 Q409.2437,276.1875 409.8843,276.3594 Q410.5405,276.5156 411.0874,276.875 Z " fill="#000000"/><text fill="#000000" font-family="sans-serif" font-size="14" lengthAdjust="spacing" textLength="52.9102" x="428.8218" y="286.7969">Profesor</text><line style="stroke:#181818;stroke-width:0.5;" x1="260.5" x2="617.5537" y1="297" y2="297"/><rect fill="none" height="6" style="stroke:#C82930;stroke-width:1.0;" width="6" x="267.5" y="308.8105"/><text fill="#000000" font-family="sans-serif" font-size="14" lengthAdjust="spacing" textLength="109.7305" x="279.5" y="316.1074">asignatura: String</text><line style="stroke:#181818;stroke-width:0.5;" x1="260.5" x2="617.5537" y1="323.6211" y2="323.6211"/><ellipse cx="270.5" cy="338.4316" fill="#84BE84" rx="3" ry="3" style="stroke:#038048;stroke-width:1.0;"/><text fill="#000000" font-family="sans-serif" font-size="14" lengthAdjust="spacing" textLength="333.0537" x="279.5" y="342.7285">Profesor(nombre: String, edad: int, asignatura: String)</text><ellipse cx="270.5" cy="357.0527" fill="#84BE84" rx="3" ry="3" style="stroke:#038048;stroke-width:1.0;"/><text fill="#000000" font-family="sans-serif" font-size="14" lengthAdjust="spacing" textLength="140.0684" x="279.5" y="361.3496">getAsignatura(): String</text><ellipse cx="270.5" cy="375.6738" fill="#84BE84" rx="3" ry="3" style="stroke:#038048;stroke-width:1.0;"/><text fill="#000000" font-family="sans-serif" font-size="14" lengthAdjust="spacing" textLength="238.123" x="279.5" y="379.9707">setAsignatura(asignatura: String): void</text><ellipse cx="270.5" cy="394.2949" fill="#84BE84" rx="3" ry="3" style="stroke:#038048;stroke-width:1.0;"/><text fill="#000000" font-family="sans-serif" font-size="14" lengthAdjust="spacing" textLength="104.2686" x="279.5" y="398.5918">ensenar(): String</text></g><!--class Curso--><g id="elem_Curso"><rect codeLine="34" fill="#F1F1F1" height="215.5898" id="Curso" rx="2.5" ry="2.5" style="stroke:#181818;stroke-width:0.5;" width="321.7432" x="268" y="485"/><ellipse cx="405.9492" cy="501" fill="#ADD1B2" rx="11" ry="11" style="stroke:#181818;stroke-width:1.0;"/><path d="M408.7148,496.875 Q408.8711,496.6563 409.0586,496.5469 Q409.2461,496.4375 409.4648,496.4375 Q409.8398,496.4375 410.0742,496.7031 Q410.3086,496.9531 410.3086,497.5625 L410.3086,499.0156 Q410.3086,499.625 410.0742,499.8906 Q409.8398,500.1563 409.4648,500.1563 Q409.1211,500.1563 408.918,499.9531 Q408.7148,499.7656 408.6055,499.25 Q408.5586,498.8906 408.3711,498.7031 Q408.043,498.3281 407.4336,498.1094 Q406.8242,497.8906 406.1992,497.8906 Q405.4336,497.8906 404.793,498.2188 Q404.168,498.5469 403.668,499.2969 Q403.1836,500.0469 403.1836,501.0781 L403.1836,502.1719 Q403.1836,503.4063 404.0742,504.2344 Q404.9648,505.0469 406.5586,505.0469 Q407.4961,505.0469 408.1523,504.7969 Q408.543,504.6406 408.9648,504.2031 Q409.2305,503.9375 409.3711,503.8594 Q409.5273,503.7813 409.7305,503.7813 Q410.0586,503.7813 410.3086,504.0469 Q410.5742,504.2969 410.5742,504.6406 Q410.5742,504.9844 410.2305,505.3906 Q409.7305,505.9688 408.9336,506.2969 Q407.8555,506.75 406.5586,506.75 Q405.043,506.75 403.8398,506.125 Q402.8555,505.625 402.168,504.5625 Q401.4805,503.4844 401.4805,502.2031 L401.4805,501.0469 Q401.4805,499.7188 402.0898,498.5781 Q402.7148,497.4219 403.8086,496.8125 Q404.9023,496.1875 406.1367,496.1875 Q406.8711,496.1875 407.5117,496.3594 Q408.168,496.5156 408.7148,496.875 Z " fill="#000000"/><text fill="#000000" font-family="sans-serif" font-size="14" lengthAdjust="spacing" textLength="37.3447" x="426.4492" y="506.7969">Curso</text><line style="stroke:#181818;stroke-width:0.5;" x1="269" x2="588.7432" y1="517" y2="517"/><rect fill="none" height="6" style="stroke:#C82930;stroke-width:1.0;" width="6" x="276" y="528.8105"/><text fill="#000000" font-family="sans-serif" font-size="14" lengthAdjust="spacing" textLength="129.165" x="288" y="536.1074">nombreCurso: String</text><rect fill="none" height="6" style="stroke:#C82930;stroke-width:1.0;" width="6" x="276" y="547.4316"/><text fill="#000000" font-family="sans-serif" font-size="14" lengthAdjust="spacing" textLength="85.6064" x="288" y="554.7285">codigo: String</text><line style="stroke:#181818;stroke-width:0.5;" x1="269" x2="588.7432" y1="562.2422" y2="562.2422"/><ellipse cx="279" cy="577.0527" fill="#84BE84" rx="3" ry="3" style="stroke:#038048;stroke-width:1.0;"/><text fill="#000000" font-family="sans-serif" font-size="14" lengthAdjust="spacing" textLength="269.2197" x="288" y="581.3496">Curso(nombreCurso: String, codigo: String)</text><ellipse cx="279" cy="595.6738" fill="#84BE84" rx="3" ry="3" style="stroke:#038048;stroke-width:1.0;"/><text fill="#000000" font-family="sans-serif" font-size="14" lengthAdjust="spacing" textLength="160.2754" x="288" y="599.9707">getNombreCurso(): String</text><ellipse cx="279" cy="614.2949" fill="#84BE84" rx="3" ry="3" style="stroke:#038048;stroke-width:1.0;"/><text fill="#000000" font-family="sans-serif" font-size="14" lengthAdjust="spacing" textLength="277.7646" x="288" y="618.5918">setNombreCurso(nombreCurso: String): void</text><ellipse cx="279" cy="632.916" fill="#84BE84" rx="3" ry="3" style="stroke:#038048;stroke-width:1.0;"/><text fill="#000000" font-family="sans-serif" font-size="14" lengthAdjust="spacing" textLength="117.5029" x="288" y="637.2129">getCodigo(): String</text><ellipse cx="279" cy="651.5371" fill="#84BE84" rx="3" ry="3" style="stroke:#038048;stroke-width:1.0;"/><text fill="#000000" font-family="sans-serif" font-size="14" lengthAdjust="spacing" textLength="191.4336" x="288" y="655.834">setCodigo(codigo: String): void</text><ellipse cx="279" cy="670.1582" fill="#84BE84" rx="3" ry="3" style="stroke:#038048;stroke-width:1.0;"/><text fill="#000000" font-family="sans-serif" font-size="14" lengthAdjust="spacing" textLength="295.7432" x="288" y="674.4551">agregarEstudiante(estudiante: Estudiante): void</text><ellipse cx="279" cy="688.7793" fill="#84BE84" rx="3" ry="3" style="stroke:#038048;stroke-width:1.0;"/><text fill="#000000" font-family="sans-serif" font-size="14" lengthAdjust="spacing" textLength="271.6123" x="288" y="693.0762">obtenerListaEstudiantes(): List&lt;Estudiante&gt;</text></g><!--reverse link Persona to Estudiante--><g id="link_Persona_Estudiante"><path d="M179.4097,222.0086 C173.9897,374.2686 175.01,646.82 181.18,779.85 " fill="none" id="Persona-backto-Estudiante" style="stroke:#181818;stroke-width:1.0;"/><polygon fill="none" points="180.05,204.02,173.4135,221.7952,185.4059,222.2221,180.05,204.02" style="stroke:#181818;stroke-width:1.0;"/></g><!--reverse link Persona to Estudiante--><g id="link_Persona_Estudiante"><path codeLine="49" d="M199.1569,222.0073 C204.8869,374.2673 203.82,646.82 197.28,779.85 " fill="none" id="Persona-backto-Estudiante-1" style="stroke:#181818;stroke-width:1.0;"/><polygon fill="none" points="198.48,204.02,193.1612,222.2329,205.1527,221.7816,198.48,204.02" style="stroke:#181818;stroke-width:1.0;"/></g><!--reverse link Persona to Profesor--><g id="link_Persona_Profesor"><path codeLine="50" d="M309.4093,216.3097 C331.8093,236.7397 341.69,245.75 362.69,264.91 " fill="none" id="Persona-backto-Profesor" style="stroke:#181818;stroke-width:1.0;"/><polygon fill="none" points="296.11,204.18,305.3661,220.7428,313.4525,211.8766,296.11,204.18" style="stroke:#181818;stroke-width:1.0;"/></g><!--link Curso to Estudiante--><g id="link_Curso_Estudiante"><path codeLine="53" d="M328.26,701.24 C303.38,727.74 277.35,755.44 254.63,779.63 " fill="none" id="Curso-Estudiante" style="stroke:#181818;stroke-width:1.0;"/><text fill="#000000" font-family="sans-serif" font-size="13" lengthAdjust="spacing" textLength="47.6772" x="296" y="746.0283">inscritos</text><text fill="#000000" font-family="sans-serif" font-size="13" lengthAdjust="spacing" textLength="7.23" x="314.5977" y="722.7694">1</text><text fill="#000000" font-family="sans-serif" font-size="13" lengthAdjust="spacing" textLength="5.0591" x="255.8613" y="768.8545">*</text></g><!--link Profesor to Curso--><g id="link_Profesor_Curso"><path codeLine="56" d="M436.27,406.32 C435.32,430.55 434.23,458.31 433.19,484.85 " fill="none" id="Profesor-Curso" style="stroke:#181818;stroke-width:1.0;"/><text fill="#000000" font-family="sans-serif" font-size="13" lengthAdjust="spacing" textLength="43.3481" x="435" y="451.0283">imparte</text><text fill="#000000" font-family="sans-serif" font-size="13" lengthAdjust="spacing" textLength="7.23" x="428.6654" y="428.1655">1</text><text fill="#000000" font-family="sans-serif" font-size="13" lengthAdjust="spacing" textLength="5.0591" x="428.3199" y="473.701">*</text></g><!--SRC=[VLH1Rjim4Bph5GjVBCNseLV3292w1df8Yg117x2cDZ8BYJIuL56WxMFwXZmX7oibaH8bMRs9kpEpdEMkrl19Oc6mGiW9ZYKoCNnxUWIX5Po-KtKjDSF7zxyiXUOaMNSOU2R3Mc4Yt8d32Nub03jGkZeRsiEBDL8LROXopFSWbNMdJO2dO-1sG6Kjh23xfKMaMIIs0UxZOm67-g5b7hWdfzOmGrNseQ5AX6SiwnnDLEdFOFR4jiubAakGNiWuWQPPtaNcUn21wASbbK_RKg4J5dM98pC3RRaTspctxz1JoCoRDAJczCWwTJTOyFviz2knDk6b_T5xGfQ5GbkRiQc0-f-bERNtzD2dvgQYt0s5s9PYKakkZhLx6M-f_HwDRXiPpQ_GkIpqw2ujABr1s4xGas7kU0iJlIWwcUrZMs6kukEJ2qHSj-jKe8ccZlhFVJICCKUVtJYJUPHiSK1mKxs97OROVTVZhrIYa5fH-yFux3P62Ob9M8V3xzqkAZMEz_Fcc0-i7K_8zpS5QQtyIrdfRWDLBIuwtZhEaYw_-h029xIwMyKxsKmT2oDjznURIlTpVQt9xRQihcYiD12gPacFYFIxWdiFf-GV]--></g></svg>